<svg width="35" height="35" viewBox="0 0 35 35" fill="none" xmlns="http://www.w3.org/2000/svg">
<g id="archives 1">
<path id="Vector" d="M24.8732 1.29132L24.8661 1.28426C24.7332 1.1471 24.5497 1.07081 24.3587 1.07279H14.3375C12.3917 1.07367 10.8144 2.65079 10.8139 4.5966V6.06963H6.12734C4.18153 6.07007 2.6042 7.64718 2.60376 9.59321V30.3616C2.6042 32.3074 4.18153 33.8845 6.12734 33.8852H20.4687C22.4145 33.8845 23.9916 32.3074 23.9922 30.3616V28.8886H28.6788C30.6246 28.8881 32.2017 27.3108 32.2024 25.365V8.90256C32.2011 8.71557 32.1279 8.53629 31.998 8.402L24.8732 1.29132ZM25.0635 3.47617L29.8063 8.21191H27.1778C26.0115 8.20861 25.0668 7.26371 25.0635 6.09763V3.47617ZM20.4687 32.4759H6.12734C4.96105 32.4724 4.01637 31.5277 4.01306 30.3616V9.59321C4.01637 8.42691 4.96105 7.48223 6.12734 7.47893H11.2719C11.4316 7.53516 11.6056 7.53516 11.7652 7.47893H15.4511V11.094C15.4515 13.0401 17.0286 14.6172 18.9747 14.6178H22.5898V30.3616C22.5832 31.5292 21.6361 32.4728 20.4687 32.4759ZM21.6032 13.2083H18.9747C17.8084 13.205 16.8637 12.2605 16.8604 11.094V8.47256L21.6032 13.2083ZM28.6788 27.4791H23.9922V13.899C23.9909 13.712 23.9177 13.5331 23.7878 13.3988L16.6701 6.28793L16.663 6.28088C16.5301 6.14394 16.3466 6.06742 16.1559 6.06963H12.2232V4.5966C12.2265 3.4303 13.1712 2.48584 14.3375 2.48231H23.6612V6.09763C23.6617 8.04344 25.2388 9.62055 27.1848 9.62121H30.7931V25.365C30.7898 26.5313 29.8449 27.4757 28.6788 27.4791Z" fill="#545454"/>
<path id="Vector_2" d="M6.87419 18.8954H14.0131C14.4025 18.8954 14.7179 18.5796 14.7179 18.1906C14.7179 17.8012 14.4025 17.4858 14.0131 17.4858H6.87419C6.48521 17.4858 6.16943 17.8012 6.16943 18.1906C6.16943 18.5796 6.48521 18.8954 6.87419 18.8954Z" fill="#545454"/>
<path id="Vector_3" d="M19.7215 22.4824H6.87419C6.48521 22.4824 6.16943 22.798 6.16943 23.1872C6.16943 23.5764 6.48521 23.8919 6.87419 23.8919H19.7215C20.1107 23.8919 20.4263 23.5764 20.4263 23.1872C20.4263 22.798 20.1107 22.4824 19.7215 22.4824Z" fill="#545454"/>
<path id="Vector_4" d="M19.7215 27.479H6.87419C6.48521 27.479 6.16943 27.7948 6.16943 28.1838C6.16943 28.573 6.48521 28.8885 6.87419 28.8885H19.7215C20.1107 28.8885 20.4263 28.573 20.4263 28.1838C20.4263 27.7948 20.1107 27.479 19.7215 27.479Z" fill="#545454"/>
<path id="Vector_5" d="M27.9315 17.4858H25.7819C25.3927 17.4858 25.0774 17.8012 25.0774 18.1906C25.0774 18.5796 25.3927 18.8954 25.7819 18.8954H27.9315C28.3207 18.8954 28.6363 18.5796 28.6363 18.1906C28.6363 17.8012 28.3207 17.4858 27.9315 17.4858Z" fill="#545454"/>
<path id="Vector_6" d="M27.9315 22.4824H25.7819C25.3927 22.4824 25.0774 22.798 25.0774 23.1872C25.0774 23.5764 25.3927 23.8919 25.7819 23.8919H27.9315C28.3207 23.8919 28.6363 23.5764 28.6363 23.1872C28.6363 22.798 28.3207 22.4824 27.9315 22.4824Z" fill="#545454"/>
</g>
</svg>
