<svg width="35" height="35" viewBox="0 0 35 35" fill="none" xmlns="http://www.w3.org/2000/svg">
<g id="01) Icons / Line /  credit-card">
<path id="credit-card" fill-rule="evenodd" clip-rule="evenodd" d="M30.625 14.5837V13.1253H4.37496V14.5837H30.625ZM30.625 16.042H4.37496V24.0628C4.37496 25.2709 5.35434 26.2503 6.56246 26.2503H28.4375C29.6456 26.2503 30.625 25.2709 30.625 24.0628V16.042ZM30.625 11.667V10.9378C30.625 9.7297 29.6456 8.75033 28.4375 8.75033H6.56246C5.35434 8.75033 4.37496 9.7297 4.37496 10.9378V11.667H30.625ZM24.7916 24.4026C23.5652 25.1114 22.007 24.837 21.0964 23.7521C20.1857 22.6672 20.1857 21.0849 21.0964 20C22.007 18.9151 23.5652 18.6408 24.7916 19.3495C26.0175 18.6425 27.5739 18.9174 28.4834 20.0016C29.3929 21.0858 29.3929 22.6663 28.4834 23.7505C27.5739 24.8347 26.0175 25.1096 24.7916 24.4026ZM23.6979 23.2885C23.458 22.8561 23.3325 22.3697 23.3333 21.8753C23.3333 21.3635 23.4645 20.8807 23.6979 20.4622C23.1067 20.309 22.4826 20.5401 22.1336 21.0413C21.7847 21.5426 21.7847 22.2081 22.1336 22.7093C22.4826 23.2106 23.1067 23.4416 23.6979 23.2885ZM2.91663 10.9378C2.91663 8.92429 4.54892 7.29199 6.56246 7.29199H28.4375C30.451 7.29199 32.0833 8.92429 32.0833 10.9378V24.0628C32.0833 26.0764 30.451 27.7087 28.4375 27.7087H6.56246C4.54892 27.7087 2.91663 26.0764 2.91663 24.0628V10.9378ZM26.25 23.3337C27.0554 23.3337 27.7083 22.6807 27.7083 21.8753C27.7083 21.0699 27.0554 20.417 26.25 20.417C25.4445 20.417 24.7916 21.0699 24.7916 21.8753C24.7916 22.6807 25.4445 23.3337 26.25 23.3337Z" fill="#0020DD"/>
</g>
</svg>
