<svg width="35" height="35" viewBox="0 0 35 35" fill="none" xmlns="http://www.w3.org/2000/svg">
<g id="01) Icons / Line /  document">
<path id="document" fill-rule="evenodd" clip-rule="evenodd" d="M29.1666 9.52137V28.4389C29.1666 30.4524 27.5343 32.0847 25.5208 32.0847H9.47909C7.46555 32.0847 5.83325 30.4524 5.83325 28.4389V6.56387C5.83325 4.55033 7.46555 2.91803 9.47909 2.91803H22.5633C22.7711 2.90442 22.9745 2.98218 23.1203 3.13095L28.9537 8.96428C29.1028 9.11041 29.1806 9.31448 29.1666 9.52282V9.52137ZM21.8749 4.37637H9.47908C8.27096 4.37637 7.29159 5.35574 7.29159 6.56387V28.4389C7.29159 29.647 8.27096 30.6264 9.47908 30.6264H25.5208C26.7289 30.6264 27.7083 29.647 27.7083 28.4389V10.2097H22.6041C22.2014 10.2097 21.8749 9.88324 21.8749 9.48053V4.37637ZM23.3333 5.40741V8.75137H26.6772L23.3333 5.40741ZM12.3958 14.5832C11.993 14.5832 11.6666 14.2568 11.6666 13.8541C11.6666 13.4514 11.993 13.1249 12.3958 13.1249H22.6041C23.0068 13.1249 23.3333 13.4514 23.3333 13.8541C23.3333 14.2568 23.0068 14.5832 22.6041 14.5832H12.3958ZM12.3958 18.9582C11.993 18.9582 11.6666 18.6318 11.6666 18.2291C11.6666 17.8264 11.993 17.4999 12.3958 17.4999H22.6041C23.0068 17.4999 23.3333 17.8264 23.3333 18.2291C23.3333 18.6318 23.0068 18.9582 22.6041 18.9582H12.3958ZM12.3958 23.3332C11.993 23.3332 11.6666 23.0068 11.6666 22.6041C11.6666 22.2014 11.993 21.8749 12.3958 21.8749H19.6874C20.0901 21.8749 20.4166 22.2014 20.4166 22.6041C20.4166 23.0068 20.0901 23.3332 19.6874 23.3332H12.3958Z" fill="#1e1e1e"/>
</g>
</svg>
