<svg width="35" height="35" viewBox="0 0 35 35" fill="none" xmlns="http://www.w3.org/2000/svg">
<g id="01) Icons / Line /  lock-alt">
<path id="lock-alt" fill-rule="evenodd" clip-rule="evenodd" d="M11.6666 13.4972V8.75033C11.6666 5.52866 14.2783 2.91699 17.5 2.91699C20.7216 2.91699 23.3333 5.52866 23.3333 8.75033V13.4972C26.9937 16.0459 28.5755 20.676 27.2398 24.9316C25.9042 29.1873 21.9603 32.083 17.5 32.083C13.0397 32.083 9.09577 29.1873 7.7601 24.9316C6.42443 20.676 8.00628 16.0459 11.6666 13.4972ZM21.875 12.6499V8.75033C21.875 6.33408 19.9162 4.37533 17.5 4.37533C15.0837 4.37533 13.125 6.33408 13.125 8.75033V12.6499C14.492 12.0008 15.9867 11.665 17.5 11.667C19.0662 11.667 20.5479 12.0199 21.875 12.6499ZM17.5 30.6253C22.3325 30.6253 26.25 26.7078 26.25 21.8753C26.25 17.0428 22.3325 13.1253 17.5 13.1253C12.6675 13.1253 8.74997 17.0428 8.74997 21.8753C8.74997 26.7078 12.6675 30.6253 17.5 30.6253ZM16.0416 20.417V20.9741C16.0416 21.9337 16.2648 22.8787 16.6935 23.7362L17.0975 24.5426C17.174 24.6947 17.3297 24.7906 17.5 24.7906C17.6702 24.7906 17.8259 24.6947 17.9025 24.5426L18.3064 23.7362C18.7351 22.8785 18.9583 21.9329 18.9583 20.9741V20.417C18.9583 19.6116 18.3054 18.9587 17.5 18.9587C16.6946 18.9587 16.0416 19.6116 16.0416 20.417ZM14.5833 20.417C14.5833 18.8062 15.8891 17.5003 17.5 17.5003C19.1108 17.5003 20.4166 18.8062 20.4166 20.417V20.9741C20.4166 22.1597 20.1396 23.3293 19.6102 24.3895L19.2077 25.1945C18.8844 25.8415 18.2233 26.2503 17.5 26.2503C16.7767 26.2503 16.1155 25.8415 15.7923 25.1945L15.3898 24.3895C14.8594 23.3291 14.5833 22.1597 14.5833 20.9741V20.417Z" fill="#3A56EA"/>
</g>
</svg>
