<svg width="35" height="35" viewBox="0 0 35 35" fill="none" xmlns="http://www.w3.org/2000/svg">
<g id="01) Icons / Line /  mail">
<path id="mail" fill-rule="evenodd" clip-rule="evenodd" d="M5.61017 26.0462C5.89746 26.1862 6.22121 26.2649 6.56246 26.2649H28.4375C28.7787 26.2649 29.1025 26.1862 29.3898 26.0462L20.7739 17.9378L17.9637 20.2507C17.6944 20.4727 17.3055 20.4727 17.0362 20.2507L14.226 17.9364L5.61017 26.0462ZM4.5835 25.0107C4.59017 25.0038 4.59698 24.997 4.60392 24.9903L13.0914 17.0016L4.64038 10.0424C4.62211 10.0272 4.60459 10.0112 4.58788 9.99428C4.4471 10.2889 4.37434 10.6113 4.37496 10.9378V24.0774C4.37496 24.4114 4.44933 24.7278 4.5835 25.0107ZM30.4164 25.0107C30.5506 24.7278 30.625 24.4114 30.625 24.0774V10.9378C30.625 10.5995 30.5491 10.2816 30.412 9.99428C30.3953 10.0112 30.3778 10.0272 30.3595 10.0424L21.9085 17.0016L30.396 24.9903L30.4164 25.0107ZM29.3766 8.96178C29.0833 8.82215 28.7624 8.7499 28.4375 8.75033H6.56246C6.22704 8.75033 5.90621 8.82616 5.62329 8.96178L17.5 18.7428L29.3766 8.96178ZM6.56246 7.29199H28.4375C30.451 7.29199 32.0833 8.92429 32.0833 10.9378V24.0774C32.0833 26.0909 30.451 27.7232 28.4375 27.7232H6.56246C4.54892 27.7232 2.91663 26.0909 2.91663 24.0774V10.9378C2.91663 8.92429 4.54892 7.29199 6.56246 7.29199Z" fill="#3A56EA"/>
</g>
</svg>
