<svg width="35" height="35" viewBox="0 0 35 35" fill="none" xmlns="http://www.w3.org/2000/svg">
<g id="01) Icons / Line /  marker">
<path id="marker" fill-rule="evenodd" clip-rule="evenodd" d="M11.3444 26.959L8.04125 23.6559C6.72585 25.1978 5.95456 27.1299 5.84646 29.1538C7.87037 29.0457 9.80243 28.2744 11.3444 26.959ZM9.05188 22.6044L12.3958 25.9484L28.8721 9.47211C29.0635 9.28067 29.1711 9.021 29.1711 8.75024C29.1711 8.47948 29.0635 8.21981 28.8721 8.02836L26.9719 6.12815C26.7804 5.93669 26.5208 5.82912 26.25 5.82912C25.9792 5.82912 25.7196 5.93669 25.5281 6.12815L9.05188 22.6044ZM21.5717 8.02107C20.4791 7.00775 18.7808 7.03997 17.7275 8.09399L12.9121 12.9138C12.7276 13.0982 12.4588 13.1702 12.2069 13.1027C11.9549 13.0352 11.7581 12.8384 11.6906 12.5865C11.6231 12.3345 11.6951 12.0657 11.8796 11.8813L16.6965 7.06586C18.3193 5.443 20.9403 5.41064 22.6027 6.99295L24.4971 5.09857C25.4652 4.13055 27.0348 4.13055 28.0029 5.09857L29.9031 6.99878C30.8711 7.96693 30.8711 9.53646 29.9031 10.5046L12.9121 27.4957C10.9078 29.4997 8.18938 30.6255 5.355 30.6252H5.10417C4.70146 30.6252 4.375 30.2988 4.375 29.8961V29.6452C4.375 26.8117 5.50083 24.0934 7.50458 22.0882L21.5717 8.02253V8.02107Z" fill="#545454"/>
</g>
</svg>
