<svg width="35" height="35" viewBox="0 0 35 35" fill="none" xmlns="http://www.w3.org/2000/svg">
<g id="01) Icons / Line /  sign-out">
<path id="sign-out" fill-rule="evenodd" clip-rule="evenodd" d="M6.86434 17.5L11.4537 22.0879C11.7388 22.373 11.7388 22.8353 11.4537 23.1204C11.1686 23.4055 10.7063 23.4055 10.4212 23.1204L4.58788 17.2871C4.45073 17.1503 4.37366 16.9645 4.37366 16.7708C4.37366 16.5771 4.45073 16.3914 4.58788 16.2546L10.4212 10.4212C10.7063 10.1361 11.1686 10.1361 11.4537 10.4212C11.7388 10.7064 11.7388 11.1686 11.4537 11.4538L6.86434 16.0417H22.6041C23.0068 16.0417 23.3333 16.3681 23.3333 16.7708C23.3333 17.1735 23.0068 17.5 22.6041 17.5H6.86434ZM15.3125 5.83333C14.9098 5.83333 14.5833 5.50687 14.5833 5.10417C14.5833 4.70146 14.9098 4.375 15.3125 4.375H26.9791C28.9927 4.375 30.625 6.0073 30.625 8.02083V26.9792C30.625 28.9927 28.9927 30.625 26.9791 30.625H15.3125C14.9098 30.625 14.5833 30.2985 14.5833 29.8958C14.5833 29.4931 14.9098 29.1667 15.3125 29.1667H26.9791C28.1873 29.1667 29.1666 28.1873 29.1666 26.9792V8.02083C29.1666 6.81271 28.1873 5.83333 26.9791 5.83333H15.3125Z" fill="#0020DD"/>
</g>
</svg>
