<svg width="35" height="35" viewBox="0 0 35 35" fill="none" xmlns="http://www.w3.org/2000/svg">
<g id="01) Icons / Line /  slider-circle-h">
<path id="slider-circle-h" fill-rule="evenodd" clip-rule="evenodd" d="M18.8854 24.7921C18.5404 26.4913 17.0464 27.7124 15.3125 27.7124C13.5786 27.7124 12.0846 26.4913 11.7396 24.7921H5.10417C4.70146 24.7921 4.375 24.4656 4.375 24.0629C4.375 23.6602 4.70146 23.3337 5.10417 23.3337H11.7396C12.0846 21.6345 13.5786 20.4134 15.3125 20.4134C17.0464 20.4134 18.5404 21.6345 18.8854 23.3337H29.8958C30.2985 23.3337 30.625 23.6602 30.625 24.0629C30.625 24.4656 30.2985 24.7921 29.8958 24.7921H18.8854ZM27.6354 17.5004C27.2904 19.1996 25.7964 20.4207 24.0625 20.4207C22.3286 20.4207 20.8346 19.1996 20.4896 17.5004H5.10417C4.70146 17.5004 4.375 17.1739 4.375 16.7712C4.375 16.3685 4.70146 16.0421 5.10417 16.0421H20.4896C20.8346 14.3429 22.3286 13.1217 24.0625 13.1217C25.7964 13.1217 27.2904 14.3429 27.6354 16.0421H29.8958C30.2985 16.0421 30.625 16.3685 30.625 16.7712C30.625 17.1739 30.2985 17.5004 29.8958 17.5004H27.6354ZM14.5104 10.2087C14.1654 11.9079 12.6714 13.1291 10.9375 13.1291C9.20363 13.1291 7.70962 11.9079 7.36458 10.2087H5.10417C4.70146 10.2087 4.375 9.88227 4.375 9.47957C4.375 9.07686 4.70146 8.7504 5.10417 8.7504H7.36458C7.70962 7.05121 9.20363 5.83008 10.9375 5.83008C12.6714 5.83008 14.1654 7.05121 14.5104 8.7504H29.8958C30.2985 8.7504 30.625 9.07686 30.625 9.47957C30.625 9.88227 30.2985 10.2087 29.8958 10.2087H14.5104ZM10.9375 11.6671C12.1456 11.6671 13.125 10.6877 13.125 9.47957C13.125 8.27144 12.1456 7.29207 10.9375 7.29207C9.72938 7.29207 8.75 8.27144 8.75 9.47957C8.75 10.6877 9.72938 11.6671 10.9375 11.6671ZM24.0625 18.9587C25.2706 18.9587 26.25 17.9794 26.25 16.7712C26.25 15.5631 25.2706 14.5837 24.0625 14.5837C22.8544 14.5837 21.875 15.5631 21.875 16.7712C21.875 17.9794 22.8544 18.9587 24.0625 18.9587ZM15.3125 26.2504C16.5206 26.2504 17.5 25.271 17.5 24.0629C17.5 22.8548 16.5206 21.8754 15.3125 21.8754C14.1044 21.8754 13.125 22.8548 13.125 24.0629C13.125 25.271 14.1044 26.2504 15.3125 26.2504Z" fill="#3A56EA"/>
</g>
</svg>
