<svg width="35" height="35" viewBox="0 0 35 35" fill="none" xmlns="http://www.w3.org/2000/svg">
<g id="01) Icons / Line /  user-plus">
<path id="user-plus" fill-rule="evenodd" clip-rule="evenodd" d="M24.7917 27.7083V24.0625C24.7917 23.6597 25.1182 23.3333 25.5209 23.3333C25.9236 23.3333 26.25 23.6597 26.25 24.0625V27.7083H29.8959C30.2986 27.7083 30.625 28.0347 30.625 28.4375C30.625 28.8402 30.2986 29.1666 29.8959 29.1666H26.25V32.8125C26.25 33.2152 25.9236 33.5416 25.5209 33.5416C25.1182 33.5416 24.7917 33.2152 24.7917 32.8125V29.1666H21.1459C20.7432 29.1666 20.4167 28.8402 20.4167 28.4375C20.4167 28.0347 20.7432 27.7083 21.1459 27.7083H24.7917ZM20.4794 19.7822C19.5423 20.2019 18.5268 20.4181 17.5 20.4166C16.4754 20.4182 15.4621 20.203 14.5265 19.7852L8.57504 22.4904C7.7935 22.8451 7.29163 23.6242 7.29171 24.4824V25.5208C7.29171 26.7289 8.27108 27.7083 9.47921 27.7083H16.7709C17.1736 27.7083 17.5 28.0347 17.5 28.4374C17.5 28.8402 17.1736 29.1666 16.7709 29.1666H9.47921C7.46567 29.1666 5.83337 27.5343 5.83337 25.5208V24.4824C5.8332 23.0529 6.66853 21.7551 7.96983 21.1633L13.0113 18.8722C10.5607 16.9582 9.59351 13.7007 10.6025 10.7595C11.6116 7.81828 14.3748 5.84055 17.4843 5.834C20.5937 5.82745 23.3653 7.79352 24.3867 10.7305C25.4081 13.6674 24.4546 16.929 22.0121 18.8533L25.8082 20.4749C26.1787 20.6336 26.3504 21.0626 26.1917 21.4331C26.033 21.8036 25.6041 21.9753 25.2336 21.8166L20.4794 19.7822ZM17.5 18.9583C20.7217 18.9583 23.3334 16.3466 23.3334 13.125C23.3334 9.90329 20.7217 7.29162 17.5 7.29162C14.2784 7.29162 11.6667 9.90329 11.6667 13.125C11.6667 16.3466 14.2784 18.9583 17.5 18.9583Z" fill="#3A56EA"/>
</g>
</svg>
