<svg width="30" height="30" viewBox="0 0 30 30" fill="none" xmlns="http://www.w3.org/2000/svg">
<g id="01) Icons / Line /  archive">
<path id="archive" fill-rule="evenodd" clip-rule="evenodd" d="M3.75 5.625V8.125C3.75 8.47018 4.02982 8.75 4.375 8.75H25.625C25.9702 8.75 26.25 8.47018 26.25 8.125V5.625C26.25 5.27982 25.9702 5 25.625 5H4.375C4.02982 5 3.75 5.27982 3.75 5.625ZM26.25 9.89375V23.125C26.25 24.8509 24.8509 26.25 23.125 26.25H6.875C5.14911 26.25 3.75 24.8509 3.75 23.125V9.89375C3.00051 9.62877 2.49958 8.91995 2.5 8.125V5.625C2.5 4.58947 3.33947 3.75 4.375 3.75H25.625C26.6605 3.75 27.5 4.58947 27.5 5.625V8.125C27.5004 8.91995 26.9995 9.62877 26.25 9.89375ZM25 10H5V23.125C5 24.1605 5.83947 25 6.875 25H23.125C24.1605 25 25 24.1605 25 23.125V10ZM10 14.375C10 13.3395 10.8395 12.5 11.875 12.5H18.125C19.1605 12.5 20 13.3395 20 14.375C20 15.4105 19.1605 16.25 18.125 16.25H11.875C10.8395 16.25 10 15.4105 10 14.375ZM11.25 14.375C11.25 14.7202 11.5298 15 11.875 15H18.125C18.4702 15 18.75 14.7202 18.75 14.375C18.75 14.0298 18.4702 13.75 18.125 13.75H11.875C11.5298 13.75 11.25 14.0298 11.25 14.375Z" fill="#0020DD"/>
</g>
</svg>
