<svg width="30" height="30" viewBox="0 0 30 30" fill="none" xmlns="http://www.w3.org/2000/svg">
<g id="01) Icons / Line /  calendar">
<path id="calendar" fill-rule="evenodd" clip-rule="evenodd" d="M20 5H10V5.625C10 5.97018 9.72018 6.25 9.375 6.25C9.02982 6.25 8.75 5.97018 8.75 5.625V5H6.875C5.83947 5 5 5.83947 5 6.875V10H25V6.875C25 5.83947 24.1605 5 23.125 5H21.25V5.625C21.25 5.97018 20.9702 6.25 20.625 6.25C20.2798 6.25 20 5.97018 20 5.625V5ZM21.25 3.75H23.125C24.8509 3.75 26.25 5.14911 26.25 6.875V23.1338C26.25 24.8596 24.8509 26.2588 23.125 26.2588H6.875C5.14911 26.2588 3.75 24.8596 3.75 23.1338V6.875C3.75 5.14911 5.14911 3.75 6.875 3.75H8.75V3.125C8.75 2.77982 9.02982 2.5 9.375 2.5C9.72018 2.5 10 2.77982 10 3.125V3.75H20V3.125C20 2.77982 20.2798 2.5 20.625 2.5C20.9702 2.5 21.25 2.77982 21.25 3.125V3.75ZM25 11.25H5V23.1338C5 24.1693 5.83947 25.0088 6.875 25.0088H23.125C24.1605 25.0088 25 24.1693 25 23.1338V11.25Z" fill="#0020DD"/>
</g>
</svg>
