<svg width="30" height="30" viewBox="0 0 30 30" fill="none" xmlns="http://www.w3.org/2000/svg">
<g id="01) Icons / Line /  clock">
<path id="clock" fill-rule="evenodd" clip-rule="evenodd" d="M14.5 27C7.59625 27 2 21.4037 2 14.5C2 7.59625 7.59625 2 14.5 2C21.4037 2 27 7.59625 27 14.5C27 21.4037 21.4037 27 14.5 27ZM14.5 25.75C18.5192 25.75 22.2332 23.6058 24.2428 20.125C26.2524 16.6442 26.2524 12.3558 24.2428 8.875C22.2332 5.39424 18.5192 3.25 14.5 3.25C8.2868 3.25 3.25 8.2868 3.25 14.5C3.25 20.7132 8.2868 25.75 14.5 25.75ZM19.2375 17.1163C19.4273 17.2426 19.5332 17.4623 19.5139 17.6895C19.4945 17.9167 19.353 18.1153 19.1446 18.2078C18.9362 18.3003 18.6939 18.2719 18.5125 18.1337L14.1375 15.0087C14.0203 14.9252 13.9355 14.8038 13.8975 14.665L12.0225 7.79C11.9553 7.5721 12.0121 7.3349 12.1708 7.17109C12.3294 7.00728 12.5646 6.94285 12.7846 7.00299C13.0045 7.06312 13.1743 7.23827 13.2275 7.46L15.045 14.1213L19.2388 17.1163H19.2375Z" fill="#0020DD"/>
</g>
</svg>
