<svg width="30" height="30" viewBox="0 0 30 30" fill="none" xmlns="http://www.w3.org/2000/svg">
<g id="01) Icons / Line /  cog">
<path id="cog" fill-rule="evenodd" clip-rule="evenodd" d="M21.4828 7.3875L23.3378 7.0075C24.1287 6.84566 24.9344 7.20823 25.3378 7.9075L26.3116 9.59375C26.7149 10.2927 26.6257 11.1713 26.0903 11.775L24.8353 13.19C25.0543 14.3867 25.0543 15.6133 24.8353 16.81L26.0903 18.225C26.6257 18.8287 26.7149 19.7073 26.3116 20.4062L25.3366 22.0938C24.9331 22.793 24.1275 23.1556 23.3365 22.9938L21.4828 22.6138C20.5572 23.4033 19.4952 24.0171 18.3491 24.425L17.7515 26.2175C17.4966 26.9829 16.7807 27.4994 15.9741 27.5H14.0266C13.2194 27.4999 12.5029 26.9833 12.2478 26.2175L11.6491 24.425C10.5028 24.0167 9.44079 23.4025 8.5153 22.6125L6.6603 22.9925C5.8694 23.1543 5.0637 22.7918 4.6603 22.0925L3.68655 20.4062C3.28324 19.7073 3.37235 18.8287 3.9078 18.225L5.1628 16.81C4.94377 15.6133 4.94377 14.3867 5.1628 13.19L3.9078 11.775C3.37235 11.1713 3.28324 10.2927 3.68655 9.59375L4.66155 7.90625C5.06495 7.20698 5.87065 6.84441 6.66155 7.00625L8.5153 7.38625C9.44088 6.59672 10.5029 5.9829 11.6491 5.575L12.2466 3.7825C12.5015 3.01714 13.2174 2.50061 14.0241 2.5H15.9715C16.7787 2.50007 17.4952 3.0167 17.7503 3.7825L18.3478 5.575C19.494 5.98328 20.5561 6.59753 21.4816 7.3875H21.4828ZM17.6653 6.6625C17.4749 6.60212 17.3249 6.4544 17.2616 6.265L16.5666 4.1775C16.4814 3.92194 16.2422 3.74967 15.9728 3.75H14.0253C13.7559 3.74967 13.5167 3.92194 13.4316 4.1775L12.7366 6.265C12.6735 6.45487 12.5234 6.60311 12.3328 6.66375C11.1394 7.04592 10.0421 7.68026 9.1153 8.52375C8.96763 8.65813 8.76464 8.71387 8.56905 8.67375L6.41155 8.23125C6.14765 8.17691 5.87862 8.29782 5.74405 8.53125L4.7703 10.2188C4.636 10.4521 4.66622 10.7452 4.8453 10.9462L6.3053 12.5938C6.43701 12.7428 6.48992 12.9456 6.4478 13.14C6.18229 14.3658 6.18229 15.6342 6.4478 16.86C6.48992 17.0544 6.43701 17.2572 6.3053 17.4062L4.84405 19.0537C4.66537 19.2551 4.63566 19.5482 4.7703 19.7812L5.7453 21.4688C5.87971 21.7017 6.14805 21.8225 6.41155 21.7688L8.5703 21.3263C8.76589 21.2861 8.96888 21.3419 9.11655 21.4762C10.0433 22.3197 11.1406 22.9541 12.3341 23.3363C12.5247 23.3969 12.6748 23.5451 12.7378 23.735L13.4328 25.8225C13.5179 26.0781 13.7572 26.2503 14.0266 26.25H15.9741C16.2434 26.2503 16.4827 26.0781 16.5678 25.8225L17.2628 23.735C17.3258 23.5451 17.4759 23.3969 17.6666 23.3363C18.86 22.9541 19.9573 22.3197 20.8841 21.4762C21.0317 21.3419 21.2347 21.2861 21.4303 21.3263L23.5891 21.7688C23.853 21.8231 24.122 21.7022 24.2565 21.4688L25.2303 19.7812C25.3646 19.5479 25.3344 19.2548 25.1553 19.0537L23.6953 17.4062C23.5636 17.2572 23.5107 17.0544 23.5528 16.86C23.8183 15.6342 23.8183 14.3658 23.5528 13.14C23.5107 12.9456 23.5636 12.7428 23.6953 12.5938L25.1566 10.9462C25.3352 10.7449 25.3649 10.4518 25.2303 10.2188L24.2553 8.53125C24.1209 8.29833 23.8525 8.1775 23.5891 8.23125L21.4303 8.67375C21.2347 8.71387 21.0317 8.65813 20.8841 8.52375C19.9573 7.68026 18.86 7.04592 17.6666 6.66375L17.6653 6.6625ZM14.9991 20C12.2376 20 9.99905 17.7614 9.99905 15C9.99905 12.2386 12.2376 10 14.9991 10C17.7605 10 19.9991 12.2386 19.9991 15C19.9991 17.7614 17.7605 20 14.9991 20ZM14.9991 18.75C17.0701 18.75 18.7491 17.0711 18.7491 15C18.7491 12.9289 17.0701 11.25 14.9991 11.25C12.928 11.25 11.2491 12.9289 11.2491 15C11.2491 17.0711 12.928 18.75 14.9991 18.75Z" fill="#0020DD"/>
</g>
</svg>
