<svg width="40" height="40" viewBox="0 0 40 40" fill="none" xmlns="http://www.w3.org/2000/svg">
<g id="01) Icons / Line /  comment">
<path id="comment" fill-rule="evenodd" clip-rule="evenodd" d="M13.8132 31.9917C13.9808 31.9637 14.1529 31.9875 14.3066 32.0601C20.3791 34.9277 27.6367 32.8316 31.2452 27.1678C34.8536 21.504 33.6866 14.0404 28.5215 9.7485C23.3563 5.45656 15.8053 5.67588 10.898 10.2604C5.99065 14.8449 5.25881 22.3636 9.18991 27.8084C9.36539 28.051 9.39721 28.3692 9.27325 28.6417L7.24325 33.0867L13.8132 31.9917ZM5.96991 34.9884C5.66636 35.0387 5.35978 34.9176 5.1725 34.6735C4.98521 34.4294 4.9477 34.1019 5.07491 33.8217L7.55825 28.3834C3.3781 22.1762 4.41247 13.8376 9.98254 8.83992C15.5526 3.84224 23.9542 3.71457 29.6735 8.5407C35.3929 13.3668 36.6802 21.6702 32.6905 28.0015C28.7009 34.3328 20.6551 36.755 13.8332 33.6784L5.96991 34.9884Z" fill="#545454"/>
</g>
</svg>
