<svg width="30" height="30" viewBox="0 0 30 30" fill="none" xmlns="http://www.w3.org/2000/svg">
<g id="01) Icons / Line /  database">
<path id="database" fill-rule="evenodd" clip-rule="evenodd" d="M3.75 9.2375V12.5C3.75 12.93 4.8175 13.5938 6.7625 14.105C8.91875 14.6725 11.8588 15 15 15C18.1412 15 21.0812 14.6725 23.2375 14.105C25.1825 13.5925 26.25 12.93 26.25 12.5V9.2375C24.2325 10.505 19.9788 11.25 15 11.25C10.0212 11.25 5.7675 10.5037 3.75 9.2375ZM2.5 7.5C2.5 5.20875 8.0425 3.75 15 3.75C21.9575 3.75 27.5 5.20875 27.5 7.5V22.5C27.5 24.7913 21.9575 26.25 15 26.25C8.0425 26.25 2.5 24.7913 2.5 22.5V7.5ZM26.25 14.2375C24.2325 15.505 19.9788 16.25 15 16.25C10.0212 16.25 5.7675 15.5037 3.75 14.2375V17.5C3.75 17.93 4.8175 18.5938 6.7625 19.105C8.91875 19.6725 11.8588 20 15 20C18.1412 20 21.0812 19.6725 23.2375 19.105C25.1825 18.5925 26.25 17.93 26.25 17.5V14.2375ZM26.25 19.2375C24.2325 20.505 19.9788 21.25 15 21.25C10.0212 21.25 5.7675 20.5037 3.75 19.2375V22.5C3.75 22.93 4.8175 23.5938 6.7625 24.105C8.91875 24.6725 11.8588 25 15 25C18.1412 25 21.0812 24.6725 23.2375 24.105C25.1825 23.5925 26.25 22.93 26.25 22.5V19.2375ZM15 10C18.1412 10 21.0812 9.6725 23.2375 9.105C25.1825 8.5925 26.25 7.93 26.25 7.5C26.25 7.07 25.1825 6.40625 23.2375 5.895C21.0812 5.3275 18.1412 5 15 5C11.8588 5 8.91875 5.3275 6.7625 5.895C4.8175 6.4075 3.75 7.07 3.75 7.5C3.75 7.93 4.8175 8.59375 6.7625 9.105C8.91875 9.6725 11.8588 10 15 10Z" fill="#3A56EA"/>
</g>
</svg>
