<svg width="30" height="30" viewBox="0 0 30 30" fill="none" xmlns="http://www.w3.org/2000/svg">
<g id="01) Icons / Line /  dollar-sign">
<path id="dollar-sign" fill-rule="evenodd" clip-rule="evenodd" d="M17.5 7.5H19.375C21.1009 7.5 22.5 8.89911 22.5 10.625C22.5 10.9702 22.2202 11.25 21.875 11.25C21.5298 11.25 21.25 10.9702 21.25 10.625C21.25 9.58947 20.4105 8.75 19.375 8.75H10.625C9.58947 8.75 8.75 9.58947 8.75 10.625V12.0925C8.75053 13.0618 9.48972 13.8709 10.455 13.9587L19.6575 14.7962C21.2674 14.9424 22.5002 16.2922 22.5 17.9087V19.375C22.5 21.1009 21.1009 22.5 19.375 22.5H17.5V24.375C17.5 24.7202 17.2202 25 16.875 25C16.5298 25 16.25 24.7202 16.25 24.375V22.5H13.75V24.375C13.75 24.7202 13.4702 25 13.125 25C12.7798 25 12.5 24.7202 12.5 24.375V22.5H10.625C8.89911 22.5 7.5 21.1009 7.5 19.375C7.5 19.0298 7.77982 18.75 8.125 18.75C8.47018 18.75 8.75 19.0298 8.75 19.375C8.75 20.4105 9.58947 21.25 10.625 21.25H19.375C20.4105 21.25 21.25 20.4105 21.25 19.375V17.9075C21.2495 16.9382 20.5103 16.1291 19.545 16.0413L10.3425 15.2038C8.73258 15.0576 7.49985 13.7078 7.5 12.0912V10.625C7.5 8.89911 8.89911 7.5 10.625 7.5H12.5V5.625C12.5 5.27982 12.7798 5 13.125 5C13.4702 5 13.75 5.27982 13.75 5.625V7.5H16.25V5.625C16.25 5.27982 16.5298 5 16.875 5C17.2202 5 17.5 5.27982 17.5 5.625V7.5Z" fill="#0020DD"/>
</g>
</svg>
