<svg width="31" height="30" viewBox="0 0 31 30" fill="none" xmlns="http://www.w3.org/2000/svg">
<g id="g801">
<g id="g803">
<g id="Clip path group">
<mask id="mask0_59_5061" style="mask-type:luminance" maskUnits="userSpaceOnUse" x="0" y="0" width="31" height="30">
<g id="clipPath809">
<path id="path807" d="M0.324219 1.90735e-06H30.3242V30H0.324219V1.90735e-06Z" fill="white"/>
</g>
</mask>
<g mask="url(#mask0_59_5061)">
<g id="g805">
<g id="g811">
<path id="path813" d="M8.26367 27.8027V28.3887C8.26367 29.0359 7.73902 29.5605 7.0918 29.5605H4.98242C4.3352 29.5605 3.81055 29.0359 3.81055 28.3887V27.2168" stroke="#3A56EA" stroke-miterlimit="10" stroke-linecap="round" stroke-linejoin="round"/>
</g>
<g id="g815">
<path id="path817" d="M26.8379 27.2168V28.3887C26.8379 29.0359 26.3132 29.5605 25.666 29.5605H23.5566C22.9094 29.5605 22.3848 29.0359 22.3848 28.3887V27.8027" stroke="#3A56EA" stroke-miterlimit="10" stroke-linecap="round" stroke-linejoin="round"/>
</g>
<g id="g819">
<path id="path821" d="M28.3228 26.7963L22.3848 27.8027H8.26367L2.32561 26.7963C1.76205 26.7008 1.34961 26.2125 1.34961 25.6409V24.5215C1.34961 24.1979 1.61193 23.9355 1.93555 23.9355H28.7129C29.0365 23.9355 29.2988 24.1979 29.2988 24.5215V25.6409C29.2988 26.2125 28.8864 26.7008 28.3228 26.7963Z" stroke="#3A56EA" stroke-miterlimit="10" stroke-linecap="round" stroke-linejoin="round"/>
</g>
<g id="g823">
<path id="path825" d="M8.55664 23.9355V16.3184C8.55664 14.7004 9.86832 13.3887 11.4863 13.3887H19.1621C20.7801 13.3887 22.0918 14.7004 22.0918 16.3184V23.9355" stroke="#3A56EA" stroke-miterlimit="10" stroke-linecap="round" stroke-linejoin="round"/>
</g>
<g id="g827">
<path id="path829" d="M12.2188 15.1465H11.7793C10.9703 15.1465 10.3145 15.8023 10.3145 16.6113V20.7129C10.3145 21.5219 10.9703 22.1777 11.7793 22.1777H18.8691C19.6781 22.1777 20.334 21.5219 20.334 20.7129V16.6113C20.334 15.8023 19.6781 15.1465 18.8691 15.1465H14.2695" stroke="#3A56EA" stroke-miterlimit="10" stroke-linecap="round" stroke-linejoin="round"/>
</g>
<g id="g843">
<path id="path845" d="M8.55664 16.5527L6.1891 16.5293C4.234 16.51 2.63867 18.0895 2.63867 20.0447V23.9355" stroke="#3A56EA" stroke-miterlimit="10" stroke-linecap="round" stroke-linejoin="round"/>
</g>
<g id="g847">
<path id="path849" d="M22.0918 16.5459H24.4941C26.4358 16.5459 28.0098 18.1199 28.0098 20.0615V23.9355" stroke="#3A56EA" stroke-miterlimit="10" stroke-linecap="round" stroke-linejoin="round"/>
</g>
<g id="g851">
<path id="path853" d="M8.55664 21.8848H4.98242C4.65881 21.8848 4.39648 21.6224 4.39648 21.2988V19.834C4.39648 19.5104 4.65881 19.248 4.98242 19.248H8.55664" stroke="#3A56EA" stroke-miterlimit="10" stroke-linecap="round" stroke-linejoin="round"/>
</g>
<g id="g855">
<path id="path857" d="M22.0918 19.248H25.666C25.9896 19.248 26.252 19.5104 26.252 19.834V21.2988C26.252 21.6224 25.9896 21.8848 25.666 21.8848H22.0918" stroke="#3A56EA" stroke-miterlimit="10" stroke-linecap="round" stroke-linejoin="round"/>
</g>
<g id="g859">
<path id="path861" d="M6.97656 16.5067V5.41996H23.6758V16.5067" stroke="#3A56EA" stroke-miterlimit="10" stroke-linecap="round" stroke-linejoin="round"/>
</g>
<g id="g867">
<path id="path869" d="M23.6758 5.41992L22.4699 2.00314C22.1391 1.06611 21.2535 0.439454 20.2597 0.439454H10.3926C9.39889 0.439454 8.51324 1.06611 8.18248 2.00314L6.97656 5.41992" stroke="#3A56EA" stroke-miterlimit="10" stroke-linecap="round" stroke-linejoin="round"/>
</g>
<g id="g871">
<path id="path873" d="M12.8047 2.7832H12.248C11.6008 2.7832 11.0762 2.25855 11.0762 1.61133V0.439453" stroke="#3A56EA" stroke-miterlimit="10" stroke-linecap="round" stroke-linejoin="round"/>
</g>
<g id="g875">
<path id="path877" d="M19.5723 0.439453V1.61133C19.5723 2.25855 19.0476 2.7832 18.4004 2.7832H14.8555" stroke="#3A56EA" stroke-miterlimit="10" stroke-linecap="round" stroke-linejoin="round"/>
</g>
<g id="g879">
<path id="path881" d="M10.6074 25.752H9.14258C8.9808 25.752 8.84961 25.8831 8.84961 26.0449V27.8027H10.9004V26.0449C10.9004 25.8831 10.7692 25.752 10.6074 25.752Z" stroke="#3A56EA" stroke-miterlimit="10" stroke-linecap="round" stroke-linejoin="round"/>
</g>
<g id="g883">
<path id="path885" d="M21.5059 25.752H20.041C19.8792 25.752 19.748 25.8831 19.748 26.0449V27.8027H21.7988V26.0449C21.7988 25.8831 21.6676 25.752 21.5059 25.752Z" stroke="#3A56EA" stroke-miterlimit="10" stroke-linecap="round" stroke-linejoin="round"/>
</g>
<g id="g887">
<path id="path889" d="M3.51758 16.1719V17.666" stroke="#3A56EA" stroke-miterlimit="10" stroke-linecap="round" stroke-linejoin="round"/>
</g>
<g id="g891">
<path id="path893" d="M6.97461 12.8027H4.68945C4.04223 12.8027 3.51758 13.3274 3.51758 13.9746V14.1211" stroke="#3A56EA" stroke-miterlimit="10" stroke-linecap="round" stroke-linejoin="round"/>
</g>
<g id="g895">
<path id="path897" d="M23.7324 12.8027H26.0176C26.6648 12.8027 27.1895 13.3274 27.1895 13.9746V17.666" stroke="#3A56EA" stroke-miterlimit="10" stroke-linecap="round" stroke-linejoin="round"/>
</g>
<g id="g899">
<path id="path901" d="M4.33789 12.8027V8.34961C4.33789 8.026 4.60021 7.76367 4.92383 7.76367H6.97461" stroke="#3A56EA" stroke-miterlimit="10" stroke-linecap="round" stroke-linejoin="round"/>
</g>
<g id="g903">
<path id="path905" d="M26.3105 12.8027V8.34961C26.3105 8.026 26.0482 7.76367 25.7246 7.76367H23.6738" stroke="#3A56EA" stroke-miterlimit="10" stroke-linecap="round" stroke-linejoin="round"/>
</g>
<g id="g907">
<path id="path909" d="M25.7246 7.76367H23.6738V2.90039C23.6738 1.56838 24.7442 0.439454 26.0762 0.439454H27.0137V2.51953H26.0762C25.8749 2.51953 25.7112 2.68324 25.7112 2.88451L25.7246 7.76367Z" stroke="#3A56EA" stroke-miterlimit="10" stroke-linecap="round" stroke-linejoin="round"/>
</g>
<g id="g911">
<path id="path913" d="M4.92383 7.76367H6.97461V2.90039C6.97461 1.56838 5.90428 0.439454 4.57227 0.439454H3.63477V2.51953H4.57227C4.77354 2.51953 4.93725 2.68324 4.93725 2.88451L4.92383 7.76367Z" stroke="#3A56EA" stroke-miterlimit="10" stroke-linecap="round" stroke-linejoin="round"/>
</g>
</g>
</g>
</g>
</g>
</g>
</svg>
