<svg width="30" height="30" viewBox="0 0 40 40" fill="none" xmlns="http://www.w3.org/2000/svg">
<g id="01) Icons / Line /  expand-alt">
<path id="expand-alt" fill-rule="evenodd" clip-rule="evenodd" d="M33.3333 32.155V27.5C33.3333 27.0398 33.7064 26.6667 34.1667 26.6667C34.6269 26.6667 35 27.0398 35 27.5V34.1667C35 34.6269 34.6269 35 34.1667 35H27.5C27.0398 35 26.6667 34.6269 26.6667 34.1667C26.6667 33.7064 27.0398 33.3333 27.5 33.3333H32.155L23.5767 24.7567C23.2508 24.4308 23.2508 23.9025 23.5767 23.5767C23.9025 23.2508 24.4308 23.2508 24.7567 23.5767L33.3333 32.155ZM6.66667 7.845V12.5C6.66667 12.9602 6.29357 13.3333 5.83333 13.3333C5.3731 13.3333 5 12.9602 5 12.5V5.83333C5 5.3731 5.3731 5 5.83333 5H12.5C12.9602 5 13.3333 5.3731 13.3333 5.83333C13.3333 6.29357 12.9602 6.66667 12.5 6.66667H7.845L16.4233 15.2433C16.7492 15.5692 16.7492 16.0975 16.4233 16.4233C16.0975 16.7492 15.5692 16.7492 15.2433 16.4233L6.66667 7.845ZM7.845 33.3333H12.5C12.9602 33.3333 13.3333 33.7064 13.3333 34.1667C13.3333 34.6269 12.9602 35 12.5 35H5.83333C5.3731 35 5 34.6269 5 34.1667V27.5C5 27.0398 5.3731 26.6667 5.83333 26.6667C6.29357 26.6667 6.66667 27.0398 6.66667 27.5V32.155L15.2433 23.5767C15.5692 23.2508 16.0975 23.2508 16.4233 23.5767C16.7492 23.9025 16.7492 24.4308 16.4233 24.7567L7.845 33.3333ZM32.155 6.66667H27.5C27.0398 6.66667 26.6667 6.29357 26.6667 5.83333C26.6667 5.3731 27.0398 5 27.5 5H34.1667C34.6269 5 35 5.3731 35 5.83333V12.5517C35 13.0119 34.6269 13.385 34.1667 13.385C33.7064 13.385 33.3333 13.0119 33.3333 12.5517V7.845L24.7567 16.4233C24.4308 16.7492 23.9025 16.7492 23.5767 16.4233C23.2508 16.0975 23.2508 15.5692 23.5767 15.2433L32.155 6.66667Z" fill="#1e1e1e"/>
</g>
</svg>
