<svg width="30" height="30" viewBox="0 0 30 30" fill="none" xmlns="http://www.w3.org/2000/svg">
<g id="Group">
<g id="Group_2">
<path id="Vector" d="M29.735 6.61942L15.2038 0.0436816C15.075 -0.0145605 14.925 -0.0145605 14.7962 0.0436816L0.264973 6.61942C0.102951 6.69272 0 6.84653 0 7.01517V22.9848C0 23.1535 0.102951 23.3073 0.264973 23.3806L14.7962 29.9563C14.8605 29.9854 14.9303 30 15 30C15.0697 30 15.1394 29.9854 15.2038 29.9563L29.735 23.3806C29.897 23.3073 30 23.1535 30 22.9848V7.01522C30 6.84647 29.897 6.69278 29.735 6.61942ZM15 0.927451L28.4529 7.01517L24.5531 8.77989C24.5285 8.76226 24.5024 8.74597 24.4738 8.73302L11.1123 2.68673L15 0.927451ZM10.0535 3.1836L23.4868 9.26247L20.7355 10.5075L7.30779 4.43112L10.0535 3.1836ZM23.8011 10.0961V14.6984L21.2312 15.8614V11.2591L23.8011 10.0961ZM29.0624 22.7091L15.4688 28.8604V13.8667L18.7113 12.3994C18.9445 12.2939 19.0422 12.0312 18.9296 11.8126C18.8171 11.5941 18.5368 11.5023 18.3036 11.6079L15 13.1029L13.7001 12.5147C13.4669 12.409 13.1866 12.5008 13.0741 12.7193C12.9615 12.9379 13.0592 13.2006 13.2924 13.3061L14.5312 13.8667V28.8604L0.937625 22.709V7.7153L11.289 12.3996C11.3547 12.4293 11.4241 12.4434 11.4925 12.4434C11.6667 12.4434 11.8341 12.3519 11.915 12.1949C12.0275 11.9764 11.9298 11.7136 11.6966 11.6081L1.54714 7.01517L6.20433 4.90767L20.2871 11.2805C20.2891 11.2832 20.2915 11.2856 20.2936 11.2882V16.5616C20.2936 16.7128 20.3765 16.8534 20.5132 16.9339C20.5891 16.9785 20.6756 17.0011 20.7625 17.0011C20.832 17.0011 20.9017 16.9866 20.9662 16.9574L24.4738 15.3701C24.6358 15.2968 24.7387 15.1431 24.7387 14.9744V9.67192L29.0624 7.71536V22.7091Z" fill="#3A56EA"/>
</g>
</g>
</svg>
