<svg width="30" height="30" viewBox="0 0 30 30" fill="none" xmlns="http://www.w3.org/2000/svg">
<g id="gym 1">
<path id="Vector" d="M6.09375 19.3891V20.6644C6.09375 20.9235 6.30341 21.1332 6.5625 21.1332H13.2415C13.4499 21.9141 14.1567 22.4941 15.0023 22.4941C15.8479 22.4941 16.5547 21.9141 16.7631 21.1332H23.4421C23.7012 21.1332 23.9108 20.9235 23.9108 20.6644V19.3891C23.9108 14.4755 19.9136 10.4783 15 10.4783C10.0891 10.4783 6.09375 14.4755 6.09375 19.3891ZM15.0023 21.5566C14.5107 21.5566 14.1106 21.1565 14.1106 20.6649C14.1106 20.1732 14.5107 19.7732 15.0023 19.7732C15.4939 19.7732 15.894 20.1732 15.894 20.6649C15.894 21.1565 15.4939 21.5566 15.0023 21.5566ZM22.9733 19.3891V20.1957H16.7628C16.5541 19.4152 15.8475 18.8357 15.0023 18.8357C14.628 18.8357 14.2801 18.9496 13.9898 19.1434L11.3232 16.4768C11.1401 16.2937 10.8435 16.2937 10.6604 16.4768C10.4773 16.6599 10.4773 16.9565 10.6604 17.1396L13.3724 19.8517C13.3177 19.961 13.2739 20.0754 13.2418 20.1957H7.03125V19.3891C7.03125 14.9927 10.6059 11.4158 15 11.4158C19.3964 11.4158 22.9733 14.9927 22.9733 19.3891Z" fill="#3A56EA"/>
<path id="Vector_2" d="M1.9668 19.8573V28.5938C1.9668 28.8528 2.17645 29.0625 2.43555 29.0625H27.564C27.8231 29.0625 28.0328 28.8528 28.0328 28.5938V19.8573C28.0328 14.1016 24.2367 9.03128 18.7654 7.38894V5.65887H22.8253C24.6806 5.65887 26.1903 4.14917 26.1903 2.29385V1.40625C26.1903 1.14716 25.9806 0.9375 25.7215 0.9375H4.28079C4.0217 0.9375 3.81204 1.14716 3.81204 1.40625V2.29385C3.81204 4.14917 5.32129 5.65887 7.17661 5.65887H11.2393V7.38876C5.76409 9.03351 1.9668 14.1032 1.9668 19.8573ZM27.0953 19.8573V28.125H2.9043V19.8573C2.9043 14.4035 6.57465 9.60388 11.833 8.1839C13.3518 7.76402 15.0113 7.6585 16.6063 7.86861C17.1383 7.93877 17.6635 8.04417 18.1744 8.18481C23.4268 9.60297 27.0953 14.4031 27.0953 19.8573ZM4.74954 2.29385V1.875H25.2528V2.29385C25.2528 3.63235 24.1638 4.72137 22.8253 4.72137H18.3057C18.3025 4.72132 18.2998 4.71954 18.2966 4.71954H11.708C11.7048 4.71954 11.7021 4.72132 11.6989 4.72137H7.17661C5.8381 4.72137 4.74954 3.63235 4.74954 2.29385ZM17.8279 5.65887V7.13242C17.7773 7.12111 17.7257 7.11339 17.6749 7.10272C17.598 7.08664 17.5208 7.07245 17.4435 7.05777C17.2435 7.01958 17.0425 6.98607 16.8401 6.95741C16.7764 6.94845 16.7129 6.93924 16.6491 6.93123C16.4107 6.9011 16.171 6.87741 15.9299 6.86048C15.9014 6.85847 15.873 6.85533 15.8445 6.85352C15.5642 6.83564 15.2828 6.82388 14.9998 6.82388C14.717 6.82388 14.4362 6.83558 14.1565 6.85341C14.1186 6.85581 14.0811 6.85993 14.0433 6.86265C13.8136 6.87927 13.5853 6.90165 13.3584 6.93023C13.2865 6.93921 13.2151 6.94954 13.1434 6.95972C12.9517 6.98719 12.7613 7.01906 12.572 7.05508C12.4871 7.07113 12.4023 7.0867 12.318 7.10446C12.2712 7.11439 12.2234 7.12152 12.1768 7.13196V5.65887H17.8279Z" fill="#3A56EA"/>
</g>
</svg>
