<svg viewBox="0 0 30 30" fill="none" xmlns="http://www.w3.org/2000/svg">
<g id="hazardous-material 1" clip-path="url(#clip0_185_11116)">
<path id="Vector" fill-rule="evenodd" clip-rule="evenodd" d="M0.412109 6.96173C0.412109 6.79362 0.501815 6.63826 0.647403 6.5542L11.1772 0.474909C11.3228 0.390851 11.5022 0.390851 11.6478 0.474909L22.1776 6.5542C22.3232 6.63826 22.4129 6.79362 22.4129 6.96173V15.9407C22.8525 16.0594 23.2262 16.3453 23.4638 16.7579L23.4642 16.7584L29.3506 26.952L29.3508 26.9522C29.6693 27.5054 29.6693 28.1558 29.3504 28.7097L29.3499 28.7104C29.0298 29.2619 28.4664 29.5883 27.8278 29.5883H16.0569C15.4195 29.5883 14.8542 29.2614 14.5353 28.7093L14.5352 28.709C14.2166 28.1558 14.2166 27.5054 14.5353 26.952L17.1436 22.4343L11.6478 25.6073C11.5022 25.6913 11.3228 25.6913 11.1772 25.6073L0.647403 19.528C0.501815 19.4439 0.412109 19.2885 0.412109 19.1204V6.96173ZM4.62093 5.34691L1.82387 6.96173L11.4125 12.4977L14.2096 10.8829L4.62093 5.34691ZM7.67434 3.58409C7.20493 3.85509 6.03146 4.5325 5.56211 4.8035L15.1507 10.3394L17.263 9.12003L7.67434 3.58409ZM21.0012 6.96173L11.4125 1.42585L8.61546 3.04067L18.2042 8.57662L21.0012 6.96173ZM21.4718 15.9409C21.4718 14.4699 21.4718 9.44526 21.4718 7.77685L18.6748 9.39167V13.9086C18.6748 14.0768 18.585 14.2321 18.4395 14.3162L15.386 16.079C15.2404 16.163 15.061 16.163 14.9154 16.079C14.7698 15.9949 14.6801 15.8396 14.6801 15.6714V11.6979L11.8831 13.3128V24.3846L18.0847 20.8042L20.4206 16.7584C20.6581 16.3458 21.0326 16.0599 21.4718 15.9409ZM21.9423 16.8202C21.6465 16.8202 21.3841 16.9711 21.2361 17.2282L15.3508 27.4219C15.2026 27.6793 15.2026 27.9817 15.3506 28.2391C15.4987 28.4952 15.7611 28.6471 16.0569 28.6471H27.8278C28.1248 28.6471 28.3865 28.4949 28.5356 28.2386C28.6833 27.9814 28.6832 27.6791 28.5352 27.422L22.6486 17.2282L22.6485 17.228C22.5006 16.9711 22.2389 16.8202 21.9423 16.8202ZM1.35329 7.77685V18.8487L10.9419 24.3846V13.3128L1.35329 7.77685ZM17.7336 9.93509L15.6213 11.1546V14.8564L17.7336 13.6369V9.93509ZM22.3325 25.1996C22.8252 25.3637 23.182 25.8295 23.182 26.3763C23.182 27.0593 22.6253 27.616 21.9423 27.616C21.2594 27.616 20.7026 27.0593 20.7026 26.3763C20.7026 25.8296 21.0595 25.3637 21.5522 25.1996C21.1658 25.0487 20.8882 24.6796 20.8725 24.2401L20.7196 20.035L20.7196 20.0336C20.7105 19.7329 20.8111 19.471 21.0192 19.2537L21.0201 19.2528C21.2305 19.0356 21.489 18.926 21.7909 18.926H22.0939C22.3962 18.926 22.657 19.0365 22.8655 19.2537C23.0759 19.4714 23.1765 19.7348 23.165 20.0363L23.0136 24.2399C22.9979 24.6793 22.7193 25.0486 22.3325 25.1996ZM21.9423 26.6749C22.1068 26.6749 22.2409 26.5408 22.2409 26.3763C22.2409 26.2119 22.1068 26.0778 21.9423 26.0778C21.7779 26.0778 21.6438 26.2119 21.6438 26.3763C21.6438 26.5408 21.7779 26.6749 21.9423 26.6749ZM21.9423 24.3316C22.0125 24.3316 22.0705 24.2764 22.073 24.2062L22.2245 20.0019V20.0015C22.2259 19.9652 22.2138 19.9337 22.1876 19.9066L22.1868 19.9057C22.1618 19.8796 22.1301 19.8671 22.0939 19.8671H21.7909C21.7542 19.8671 21.7228 19.8806 21.6966 19.9072C21.6713 19.9343 21.6593 19.967 21.6603 20.0043L21.813 24.2061V24.2063C21.8155 24.2761 21.8725 24.3316 21.9423 24.3316Z" fill="#0020DD"/>
</g>
<defs>
<clipPath id="clip0_185_11116">
<rect width="30" height="30" fill="white"/>
</clipPath>
</defs>
</svg>
