<svg width="34" height="30" viewBox="0 0 34 30" fill="none" xmlns="http://www.w3.org/2000/svg">
<g id="Layer 2">
<path id="Vector" d="M8.62603 29.8426C6.91992 29.8431 5.25199 29.3375 3.83331 28.3898C2.41462 27.4421 1.30894 26.0948 0.656165 24.5185C0.00338852 22.9422 -0.167142 21.2077 0.166151 19.5345C0.499444 17.8612 1.32158 16.3245 2.52853 15.1186L15.256 2.3896C15.4671 2.17855 15.7533 2.05999 16.0518 2.05999C16.3502 2.05999 16.6365 2.17855 16.8475 2.3896C17.0586 2.60064 17.1771 2.88688 17.1771 3.18535C17.1771 3.48381 17.0586 3.77005 16.8475 3.9811L4.11854 16.7086C3.50229 17.295 3.00964 17.9989 2.66963 18.7787C2.32962 19.5585 2.14912 20.3984 2.13876 21.249C2.1284 22.0997 2.28839 22.9438 2.6093 23.7316C2.93022 24.5195 3.40557 25.2351 4.00735 25.8364C4.60913 26.4377 5.32517 26.9124 6.11328 27.2327C6.90138 27.5529 7.74561 27.7122 8.59623 27.7012C9.44685 27.6901 10.2867 27.5089 11.0662 27.1682C11.8457 26.8276 12.5491 26.3343 13.135 25.7176L29.575 9.2776C30.3284 8.49965 30.7457 7.45672 30.7371 6.37382C30.7284 5.29091 30.2943 4.25483 29.5286 3.48907C28.7628 2.72332 27.7267 2.28927 26.6438 2.28058C25.5609 2.27189 24.518 2.68924 23.74 3.4426L10.483 16.7086C10.1314 17.0603 9.93379 17.5373 9.93379 18.0346C9.93379 18.5319 10.1314 19.0089 10.483 19.3606C10.8347 19.7123 11.3117 19.9098 11.809 19.9098C12.3064 19.9098 12.7834 19.7123 13.135 19.3606L21.6175 10.8766C21.7213 10.7691 21.8454 10.6833 21.9826 10.6243C22.1198 10.5653 22.2674 10.5342 22.4168 10.5328C22.5662 10.5315 22.7143 10.5598 22.8526 10.6163C22.9909 10.6728 23.1165 10.7563 23.2222 10.8619C23.3279 10.9675 23.4115 11.093 23.4681 11.2313C23.5248 11.3695 23.5533 11.5176 23.5521 11.667C23.5508 11.8164 23.5199 11.964 23.461 12.1013C23.4021 12.2386 23.3164 12.3628 23.209 12.4666L14.725 20.9521C13.9515 21.7259 12.9022 22.1606 11.8081 22.1608C10.7139 22.1609 9.66455 21.7264 8.89079 20.9528C8.11702 20.1793 7.68224 19.13 7.6821 18.0359C7.68196 16.9417 8.11646 15.8924 8.89003 15.1186L22.15 1.8676C23.3455 0.671936 24.967 0.000140674 26.6578 2.20905e-08C28.3485 -0.00014063 29.9701 0.671385 31.1658 1.86685C32.3614 3.06231 33.0332 4.68379 33.0334 6.37457C33.0335 8.06535 32.362 9.68694 31.1665 10.8826L14.7265 27.3166C13.9271 28.12 12.9764 28.7569 11.9292 29.1905C10.8821 29.6241 9.75938 29.8457 8.62603 29.8426Z" fill="#0020DD"/>
</g>
</svg>
