<svg width="30" height="30" viewBox="0 0 30 30" fill="none" xmlns="http://www.w3.org/2000/svg">
<g id="01) Icons / Line /  map-marker">
<path id="map-marker" fill-rule="evenodd" clip-rule="evenodd" d="M15 17.5C12.2386 17.5 10 15.2614 10 12.5C10 9.73858 12.2386 7.5 15 7.5C17.7614 7.5 20 9.73858 20 12.5C20 15.2614 17.7614 17.5 15 17.5ZM15 16.25C17.0711 16.25 18.75 14.5711 18.75 12.5C18.75 10.4289 17.0711 8.75 15 8.75C12.9289 8.75 11.25 10.4289 11.25 12.5C11.25 14.5711 12.9289 16.25 15 16.25ZM15.425 26.0838C15.1853 26.3061 14.8147 26.3061 14.575 26.0838C9.045 20.9775 6.25 16.465 6.25 12.5C6.25 9.37393 7.91774 6.48531 10.625 4.92228C13.3323 3.35924 16.6677 3.35924 19.375 4.92228C22.0823 6.48531 23.75 9.37393 23.75 12.5C23.75 16.465 20.9563 20.9775 15.425 26.0838ZM22.5 12.5C22.5 8.35786 19.1421 5 15 5C10.8579 5 7.5 8.35786 7.5 12.5C7.5 15.94 9.98375 20.0438 15 24.77C20.0162 20.045 22.5 15.94 22.5 12.5Z" fill="#939393"/>
</g>
</svg>
