<svg width="30" height="24" viewBox="0 0 30 24" fill="none" xmlns="http://www.w3.org/2000/svg">
<g id="open-box 1" clip-path="url(#clip0_59_5158)">
<g id="Group">
<g id="Group_2">
<path id="Vector" d="M26.459 7.79755L29.7515 5.19057C29.849 5.11335 29.8945 5.00465 29.8743 4.89715C29.8541 4.7896 29.7706 4.69581 29.649 4.64404L18.8386 0.0421541C18.6676 -0.0306032 18.456 -0.00653481 18.3185 0.10152L14.9998 2.70803L11.6814 0.101704C11.5987 0.0363556 11.488 0 11.3714 0C11.2982 0 11.2261 0.0146803 11.1616 0.0423382L7.68942 1.51994C7.5863 1.56412 7.5113 1.63683 7.4779 1.72519C7.4445 1.81355 7.4568 1.90697 7.51247 1.98796C7.58981 2.09933 7.73805 2.16887 7.89919 2.16887C7.97184 2.16887 8.0445 2.15414 8.10837 2.12699L11.2917 0.771752L14.2723 3.11273L4.24071 7.37131L1.2853 5.03121L6.56272 2.78461C6.66643 2.74089 6.74143 2.66818 6.77483 2.57982C6.80823 2.49147 6.79592 2.39805 6.73967 2.31705C6.66292 2.20568 6.51467 2.13619 6.35354 2.13619C6.28088 2.13619 6.20881 2.15087 6.14436 2.17802L0.351315 4.64423C0.230026 4.69526 0.145651 4.79011 0.125729 4.89733C0.105807 5.00405 0.151569 5.11358 0.248776 5.19048L3.54098 7.79764L0.248541 10.4046C0.1511 10.4818 0.105631 10.5905 0.125788 10.698C0.146002 10.8055 0.229499 10.8993 0.351139 10.9511L3.72104 12.3856V18.6141C3.72098 18.626 3.72174 18.6379 3.72327 18.6497C3.72391 18.6547 3.72514 18.6596 3.72602 18.6645C3.72714 18.6705 3.72801 18.6766 3.72954 18.6825C3.73141 18.69 3.73399 18.6973 3.73645 18.7046C3.73762 18.708 3.7385 18.7114 3.73979 18.7147C3.74266 18.7221 3.74612 18.7294 3.74958 18.7366C3.7511 18.7399 3.75239 18.7431 3.75409 18.7463C3.75749 18.7528 3.76141 18.759 3.76528 18.7653C3.76768 18.7692 3.76985 18.7731 3.77243 18.7769C3.77594 18.7821 3.77987 18.787 3.78362 18.792C3.78725 18.7967 3.79071 18.8015 3.79458 18.8062C3.7978 18.81 3.80143 18.8136 3.80489 18.8174C3.80987 18.8227 3.81479 18.8282 3.82018 18.8335C3.82317 18.8364 3.82651 18.839 3.82962 18.8418C3.83583 18.8475 3.84204 18.8531 3.84872 18.8584C3.85217 18.8611 3.85598 18.8636 3.85956 18.8663C3.86624 18.8712 3.8728 18.8762 3.87989 18.8808C3.88674 18.8852 3.89401 18.8893 3.90116 18.8934C3.90538 18.8958 3.9093 18.8984 3.91364 18.9007C3.92624 18.9074 3.9393 18.9136 3.95278 18.9193L14.7888 23.5197C14.8044 23.5265 14.8207 23.5323 14.8374 23.5375C14.841 23.5386 14.8447 23.5396 14.8484 23.5406C14.8606 23.5442 14.873 23.5473 14.8857 23.5499C14.8902 23.5509 14.8948 23.5519 14.8993 23.5527C14.9116 23.555 14.9241 23.5567 14.9368 23.5582C14.9411 23.5586 14.9453 23.5593 14.9497 23.5597C14.9662 23.5612 14.9829 23.5621 15 23.5621C15.017 23.5621 15.0338 23.5612 15.0503 23.5597C15.0547 23.5593 15.0589 23.5586 15.0633 23.5582C15.0759 23.5567 15.0884 23.555 15.1007 23.5527C15.1052 23.5519 15.1098 23.5509 15.1143 23.5499C15.127 23.5473 15.1394 23.5442 15.1515 23.5406C15.1552 23.5396 15.1589 23.5386 15.1625 23.5375C15.1792 23.5323 15.1955 23.5265 15.211 23.5197L26.0471 18.9193C26.0606 18.9136 26.0736 18.9074 26.0862 18.9007C26.0906 18.8984 26.0945 18.8958 26.0987 18.8934C26.1059 18.8892 26.1132 18.8852 26.12 18.8808C26.1271 18.8762 26.1336 18.8712 26.1403 18.8663C26.1439 18.8636 26.1477 18.8611 26.1511 18.8584C26.1578 18.8531 26.164 18.8475 26.1702 18.8418C26.1733 18.839 26.1767 18.8364 26.1797 18.8335C26.1851 18.8283 26.19 18.8228 26.195 18.8174C26.1984 18.8136 26.2021 18.81 26.2053 18.8062C26.2091 18.8015 26.2126 18.7968 26.2162 18.792C26.22 18.787 26.224 18.7821 26.2274 18.7769C26.23 18.7731 26.2322 18.7692 26.2346 18.7653C26.2384 18.759 26.2424 18.7528 26.2458 18.7463C26.2475 18.7431 26.2488 18.7399 26.2503 18.7366C26.2537 18.7294 26.2572 18.7222 26.2601 18.7147C26.2614 18.7114 26.2622 18.708 26.2634 18.7046C26.2659 18.6973 26.2684 18.69 26.2703 18.6825C26.2718 18.6766 26.2727 18.6705 26.2738 18.6645C26.2747 18.6596 26.276 18.6547 26.2766 18.6497C26.2781 18.6379 26.2789 18.626 26.2788 18.6141V12.3856L29.6485 10.9511C29.7698 10.8996 29.8542 10.8048 29.8741 10.698C29.8941 10.5908 29.8483 10.4813 29.7517 10.4044L26.459 7.79755ZM18.7081 0.771798L28.7146 5.03144L25.7592 7.37145L15.7277 3.11259L18.7081 0.771798ZM4.36797 11.8759L1.28548 10.5637L4.24083 8.22369L14.2724 12.4825L11.2919 14.8233L4.37173 11.8775C4.37049 11.8769 4.36926 11.8764 4.36797 11.8759ZM14.5606 22.6381L4.59989 18.4093V12.7598L11.1615 15.553C11.2274 15.581 11.2993 15.5947 11.3707 15.5947C11.4845 15.5947 11.597 15.56 11.6816 15.4936L14.5606 13.2324V22.6381ZM15 12.0068L5.08557 7.79764L15.0003 3.58844L24.9148 7.79759L15 12.0068ZM25.6338 11.8752C25.6314 11.8762 25.6291 11.8772 25.6267 11.8782L23.4374 12.8103C23.3337 12.854 23.2587 12.9271 23.2253 13.0155C23.1919 13.1039 23.2042 13.1973 23.2598 13.2783C23.3372 13.3897 23.4854 13.4587 23.6465 13.4587C23.7192 13.4587 23.7919 13.4444 23.8557 13.4173L25.4001 12.7598V18.4094L15.4395 22.6381V13.2323L18.3187 15.4936C18.402 15.559 18.5121 15.5949 18.6293 15.5949C18.7019 15.5949 18.774 15.5801 18.8385 15.553L22.3107 14.0749C22.4138 14.0312 22.4888 13.958 22.5222 13.8696C22.5556 13.7813 22.5433 13.6883 22.4876 13.6073C22.4103 13.4955 22.262 13.4265 22.1003 13.4265C22.0282 13.4265 21.9556 13.4407 21.8917 13.4683L18.7084 14.8231L15.7278 12.4826L25.7594 8.22351L28.7149 10.5636L25.6338 11.8752Z" fill="#3A56EA"/>
</g>
</g>
</g>
<defs>
<clipPath id="clip0_59_5158">
<rect width="30" height="23.5621" fill="white"/>
</clipPath>
</defs>
</svg>
