<svg width="30" height="30" viewBox="0 0 30 30" fill="none" xmlns="http://www.w3.org/2000/svg">
<g id="01) Icons / Line /  sticky-notes-2">
<path id="sticky-notes-2" fill-rule="evenodd" clip-rule="evenodd" d="M24.51 24.3875C24.815 24.055 25 23.6125 25 23.125V6.875C25 5.83947 24.1605 5 23.125 5H6.875C5.83947 5 5 5.83947 5 6.875V23.125C5 24.1605 5.83947 25 6.875 25C7.91053 25 8.75 24.1605 8.75 23.125V20.625C8.75 20.4283 8.84262 20.243 9 20.125C9.15738 20.007 9.36115 19.9699 9.55 20.025L24.51 24.3875ZM22.1425 25L10 21.4587V23.125C10 23.8288 9.7675 24.4775 9.375 25H22.1425ZM23.125 3.75C24.8509 3.75 26.25 5.14911 26.25 6.875V23.125C26.25 24.8509 24.8509 26.25 23.125 26.25H6.875C5.14911 26.25 3.75 24.8509 3.75 23.125V6.875C3.75 5.14911 5.14911 3.75 6.875 3.75H23.125Z" fill="#3A56EA"/>
</g>
</svg>
