<svg width="21" height="21" viewBox="0 0 21 21" fill="none" xmlns="http://www.w3.org/2000/svg">
<g id="excel 1">
<g id="g2140">
<path id="path2109" d="M4.92188 1.3125C4.01864 1.3125 3.28125 2.0499 3.28125 2.95312V18.0469C3.28125 18.9501 4.01864 19.6875 4.92188 19.6875H16.0781C16.9814 19.6875 17.7188 18.9501 17.7188 18.0469V6.5625C17.7188 6.26367 17.5972 5.9818 17.3932 5.77295L13.3596 1.64319C13.1485 1.42712 12.8601 1.3125 12.5649 1.3125H4.92188ZM4.92188 1.96875H12.4688V5.25C12.4688 5.97145 13.0598 6.5625 13.7812 6.5625H17.0625V18.0469C17.0625 18.5979 16.6291 19.0312 16.0781 19.0312H4.92188C4.37086 19.0312 3.9375 18.5979 3.9375 18.0469V2.95312C3.9375 2.4021 4.37086 1.96875 4.92188 1.96875ZM13.125 2.34238L16.6062 5.90625H13.7812C13.412 5.90625 13.125 5.61924 13.125 5.25V2.34238Z" fill="black"/>
<path id="rect2126" d="M6.5625 8.53125C6.20461 8.53125 5.90625 8.82961 5.90625 9.1875V16.4062C5.90625 16.7641 6.20461 17.0625 6.5625 17.0625H14.4375C14.7954 17.0625 15.0938 16.7641 15.0938 16.4062V9.1875C15.0938 8.82961 14.7954 8.53125 14.4375 8.53125H6.5625ZM6.5625 9.1875H8.53125V11.1562H6.5625V9.1875ZM9.1875 9.1875H14.4375V11.1562H9.1875V9.1875ZM6.5625 11.8125H8.53125V13.7812H6.5625V11.8125ZM9.1875 11.8125H14.4375V13.7812H9.1875V11.8125ZM6.5625 14.4375H8.53125V16.4062H6.5625V14.4375ZM9.1875 14.4375H14.4375V16.4062H9.1875V14.4375Z" fill="black"/>
</g>
</g>
</svg>
