<?xml version="1.0" encoding="UTF-8"?>
<svg width="20" height="20" viewBox="0 0 20 20" xmlns="http://www.w3.org/2000/svg" fill="currentColor" stroke="currentColor">

    <g>
        <path d="M17.3 3.3a1.13 1.13 0 0 0-1.6 0l-2.4 2.4c-1.1-.4-2.2-.6-3.3-.6-3.8.1-7.2 2.1-9 5.4.2.4.5.8.8 1.2.8 1.1 1.8 2 2.9 2.7L3 16.1a1.13 1.13 0 0 0 0 1.6c.4.4 1.1.5 1.6 0L17.3 4.9a1.13 1.13 0 0 0 0-1.6zM6.7 12.3l-1.3 1.3c-1.2-.7-2.3-1.7-3.1-2.9C3.5 9 5.1 7.8 7 7.2c-1.3 1.4-1.4 3.6-.3 5.1zM10.1 9a1.13 1.13 0 0 1 1.7 0L10.1 9zm8.2.5c-.5-.7-1.1-1.4-1.8-1.9l-1 1c.8.6 1.5 1.3 2.1 2.2C15.9 13.4 13 15 9.9 15h-.8l-1 1c.7-.1 1.3 0 1.9 0 3.3 0 6.4-1.6 8.3-4.3.3-.4.5-.8.8-1.2-.3-.3-.5-.7-.8-1zM14 10l-4 4c2.2 0 4-1.8 4-4z"/>
    </g>
</svg>
