<?xml version="1.0" encoding="utf-8"?>
<svg viewBox="8.0063 10.1621 353.5412 145.3918" xmlns="http://www.w3.org/2000/svg">
  <g transform="matrix(0.43755102157592773, 0, 0, 0.43687304854393005, 137.52137756347656, -28.98126792907715)" style="">
    <g>
      <path d="M 507.699 229.009 L 456.499 152.2 C 451.754 145.075 443.759 140.799 435.2 140.799 L 332.8 140.799 L 332.8 115.199 C 332.8 101.059 321.34 89.599 307.2 89.599 L -270.4 89.599 C -284.54 89.6 -296 101.06 -296 115.2 L -296 345.6 C -296 359.74 -284.54 371.2 -270.4 371.2 L -249.103 371.2 C -243.155 400.375 -217.308 422.4 -186.4 422.4 C -155.492 422.4 -129.645 400.375 -123.697 371.2 L 334.097 371.2 C 340.045 400.375 365.892 422.4 396.8 422.4 C 427.708 422.4 453.555 400.375 459.503 371.2 L 486.4 371.2 C 500.54 371.2 512 359.74 512 345.6 L 512 243.209 C 512 238.157 510.507 233.216 507.699 229.009 Z M -186.4 396.8 C -207.605 396.8 -224.8 379.605 -224.8 358.4 C -224.8 337.195 -207.605 320 -186.4 320 C -165.195 320 -148 337.195 -148 358.4 C -148 379.605 -165.195 396.8 -186.4 396.8 Z M 307.2 345.6 L -123.697 345.6 C -129.645 316.425 -155.492 294.4 -186.4 294.4 C -217.308 294.4 -243.155 316.425 -249.103 345.6 L -270.4 345.6 L -270.4 320 L -244.8 320 L -244.8 294.4 L -270.4 294.4 L -270.4 115.2 L 307.2 115.2 L 307.2 345.6 Z M 332.8 166.4 L 435.2 166.4 L 480.956 235.042 L 412.706 217.975 C 411.691 217.728 410.65 217.6 409.6 217.6 L 332.8 217.6 L 332.8 166.4 Z M 396.8 396.8 C 375.595 396.8 358.4 379.605 358.4 358.4 C 358.4 337.195 375.595 320 396.8 320 C 418.005 320 435.2 337.195 435.2 358.4 C 435.2 379.605 418.005 396.8 396.8 396.8 Z M 486.4 281.6 L 460.8 281.6 L 460.8 307.2 L 486.4 307.2 L 486.4 345.6 L 459.503 345.6 C 453.555 316.425 427.708 294.4 396.8 294.4 C 365.892 294.4 340.045 316.425 334.097 345.6 L 332.8 345.6 L 332.8 243.2 L 408.021 243.2 L 486.4 262.801 L 486.4 281.6 Z"/>
    </g>
  </g>
</svg>