<svg xmlns="http://www.w3.org/2000/svg" viewBox="0 0 512 512" id="warning">
  <path fill="#9bc9ff" fill-rule="evenodd" d="M239.443 182.265c-.127-3.508 1.038-6.558 3.477-9.084 2.45-2.538 5.419-3.798 8.946-3.798h8.31c3.529 0 6.496 1.263 8.947 3.802 2.436 2.524 3.603 5.573 3.476 9.079l-4.154 115.025a12.405 12.405 0 0 1-12.423 11.984 12.406 12.406 0 0 1-12.425-11.984l-4.154-115.024zm16.577 157.02c9.403 0 17.051 7.646 17.051 17.05 0 9.403-7.648 17.049-17.051 17.049s-17.051-7.646-17.051-17.049c-.001-9.404 7.648-17.05 17.051-17.05zm-203.684 42.11c-7.383 12.788-7.384 28.012 0 40.8 7.384 12.788 20.569 20.4 35.336 20.4h336.696c14.767 0 27.952-7.611 35.336-20.4 7.383-12.788 7.383-28.012 0-40.801L291.356 89.807c-7.384-12.788-20.569-20.4-35.336-20.4s-27.951 7.611-35.334 20.4L52.336 381.395zm435.146 56.84c13.165-22.804 13.165-50.076 0-72.88L319.133 73.768c-13.165-22.802-36.784-36.435-63.113-36.435s-49.948 13.633-63.113 36.435L24.56 365.355c-13.166 22.804-13.166 50.076 0 72.88 13.164 22.8 36.787 36.435 63.113 36.435h336.696c26.326 0 49.949-13.634 63.113-36.435z" clip-rule="evenodd"></path>
  <path fill="#57a4ff" fill-rule="evenodd" d="M3.399 218.471c-6.809-25.415-3.315-51.962 9.841-74.749 13.156-22.787 34.398-39.087 59.815-45.895a7.998 7.998 0 0 1 9.797 5.656 8 8 0 0 1-5.657 9.799c-21.287 5.704-39.078 19.352-50.097 38.441-11.019 19.088-13.947 41.318-8.241 62.61a7.997 7.997 0 0 1-5.658 9.794 7.888 7.888 0 0 1-2.075.278 8.003 8.003 0 0 1-7.725-5.934zM83.8 137.939c-30.347 8.133-48.42 39.436-40.289 69.786a8.006 8.006 0 0 0 7.722 5.93 7.998 7.998 0 0 0 7.733-10.068c-5.847-21.829 7.151-44.347 28.978-50.193a8 8 0 1 0-4.144-15.455zm345.389-34.454a8 8 0 0 1 9.798-5.656c25.415 6.808 46.658 23.108 59.811 45.895 13.158 22.787 16.654 49.334 9.841 74.749a8.003 8.003 0 0 1-7.718 5.935 7.91 7.91 0 0 1-2.076-.278 7.991 7.991 0 0 1-5.656-9.794c5.699-21.291 2.774-43.521-8.242-62.61-11.021-19.088-28.813-32.737-50.101-38.441a8.004 8.004 0 0 1-5.657-9.8zm-10.748 40.11c-1.142 4.27 1.39 8.657 5.656 9.799 21.827 5.845 34.827 28.363 28.978 50.193a7.997 7.997 0 0 0 7.733 10.068 8.008 8.008 0 0 0 7.724-5.93c8.128-30.349-9.944-61.652-40.291-69.786a8.004 8.004 0 0 0-9.8 5.656zM256.02 369.384c-7.196 0-13.051-5.855-13.051-13.049 0-7.195 5.855-13.05 13.051-13.05 7.197 0 13.051 5.855 13.051 13.05 0 7.194-5.855 13.049-13.051 13.049zm0-42.097c-16.018 0-29.051 13.031-29.051 29.048 0 16.021 13.033 29.052 29.051 29.052 16.02 0 29.051-13.031 29.051-29.052 0-16.017-13.031-29.048-29.051-29.048zm-10.223-151.328c1.695-1.755 3.625-2.576 6.068-2.576h8.31c2.443 0 4.371.821 6.068 2.58 1.695 1.755 2.445 3.713 2.357 6.157l-4.154 115.025a8.403 8.403 0 0 1-8.425 8.129h-.002a8.4 8.4 0 0 1-8.425-8.129L243.44 182.12c-.088-2.443.66-4.401 2.357-6.161zm-14.192 121.762a24.346 24.346 0 0 0 24.417 23.551 24.35 24.35 0 0 0 24.417-23.551l4.154-115.024c.243-6.789-2.119-12.96-6.833-17.843-4.712-4.888-10.794-7.468-17.582-7.468h-8.31c-6.791 0-12.871 2.581-17.585 7.468-4.714 4.888-7.075 11.058-6.832 17.843l4.154 115.024zm217.706 118.473c5.284-9.152 5.284-19.65 0-28.802L280.963 95.809c-5.284-9.153-14.374-14.403-24.943-14.403-10.567 0-19.658 5.251-24.942 14.403L62.729 387.392c-5.284 9.152-5.284 19.65 0 28.807 5.285 9.148 14.377 14.399 24.943 14.399h336.696c10.568-.001 19.66-5.252 24.943-14.404zM294.82 87.807c-8.097-14.026-22.603-22.4-38.8-22.4-16.197 0-30.7 8.374-38.798 22.4L48.872 379.395c-8.098 14.026-8.098 30.774 0 44.8 8.099 14.026 22.605 22.4 38.8 22.4h336.696c16.197 0 30.702-8.374 38.8-22.4 8.098-14.026 8.098-30.774 0-44.8L294.82 87.807zm189.197 348.428c12.45-21.57 12.45-47.315 0-68.88L315.669 75.768c-12.449-21.565-34.748-34.435-59.649-34.435-24.901 0-47.198 12.87-59.649 34.435L28.024 367.355c-12.451 21.565-12.451 47.31 0 68.88 12.45 21.56 34.75 34.435 59.649 34.435h336.696c24.9 0 47.199-12.874 59.648-34.435zM329.527 67.771C314.183 41.196 286.704 25.33 256.02 25.33c-30.684 0-58.161 15.866-73.506 42.441L14.167 359.354c-15.342 26.575-15.342 58.302 0 84.878 15.342 26.575 42.821 42.441 73.505 42.441h336.696c30.684 0 58.164-15.866 73.506-42.441 15.342-26.575 15.342-58.302 0-84.878L329.527 67.771z" clip-rule="evenodd"></path>
</svg>
