<svg width="41" height="29" viewBox="0 0 41 29" fill="none" xmlns="http://www.w3.org/2000/svg">
<path fill-rule="evenodd" clip-rule="evenodd" d="M4.53355 25.9758C4.91934 26.1638 5.35409 26.2696 5.81234 26.2696H35.1873C35.6456 26.2696 36.0803 26.1638 36.4661 25.9758L24.8963 15.0875L21.1226 18.1934C20.7609 18.4915 20.2388 18.4915 19.8771 18.1934L16.1034 15.0855L4.53355 25.9758ZM3.15488 24.5854C3.16384 24.5761 3.17298 24.5669 3.1823 24.558L14.5798 13.8302L3.23125 4.48507C3.20673 4.46468 3.1832 4.44311 3.16075 4.42045C2.97172 4.81604 2.874 5.24905 2.87484 5.68749V23.3321C2.87484 23.7805 2.97471 24.2055 3.15488 24.5854ZM37.8448 24.5854C38.025 24.2055 38.1248 23.7805 38.1248 23.3321V5.68749C38.1248 5.23316 38.023 4.80624 37.8389 4.42045C37.8165 4.44311 37.7929 4.46468 37.7684 4.48507L26.4199 13.8302L37.8174 24.558L37.8448 24.5854ZM36.4485 3.03395C36.0545 2.84644 35.6236 2.74942 35.1873 2.74999H5.81234C5.36192 2.74999 4.93109 2.85182 4.55117 3.03395L20.4998 16.1685L36.4485 3.03395ZM5.81234 0.791656H35.1873C37.8912 0.791656 40.0832 2.9836 40.0832 5.68749V23.3321C40.0832 26.036 37.8912 28.2279 35.1873 28.2279H5.81234C3.10844 28.2279 0.916504 26.036 0.916504 23.3321V5.68749C0.916504 2.9836 3.10844 0.791656 5.81234 0.791656Z" fill="#D9D9D9"/>
</svg>
