<svg width="38" height="38" viewBox="0 0 38 38" fill="none" xmlns="http://www.w3.org/2000/svg">
<path fill-rule="evenodd" clip-rule="evenodd" d="M2.49984 5.24999V8.92949C2.49984 23.6108 14.4018 35.5128 29.0832 35.5128H32.7498C34.2686 35.5128 35.4998 34.2816 35.4998 32.7628V28.0603C35.5005 26.8758 34.7427 25.824 33.6188 25.4497L27.7833 23.5063C26.6075 23.1142 25.3146 23.5572 24.6263 24.588L23.288 26.5937C22.5997 27.6245 21.3069 28.0674 20.131 27.6753L17.3352 26.744C14.468 25.7881 12.2681 23.4629 11.4722 20.5473L10.3227 16.3307C9.93929 14.9234 10.7213 13.4616 12.1047 12.9995L13.2102 12.631C14.366 12.246 15.0698 11.0772 14.8693 9.87549L14.0223 4.79716C13.801 3.47115 12.6534 2.49956 11.309 2.49999H5.24984C3.73105 2.49999 2.49984 3.73121 2.49984 5.24999ZM0.666504 5.24999C0.666504 2.71868 2.71853 0.666656 5.24984 0.666656H11.3108C13.5514 0.666643 15.4635 2.28645 15.8318 4.49649L16.677 9.57482C17.0248 11.6656 15.8002 13.6987 13.7895 14.369L12.6858 14.7375C12.2237 14.8908 11.962 15.3787 12.09 15.8485L13.2395 20.0652C13.874 22.39 15.6283 24.244 17.9145 25.006L20.7122 25.9373C21.1043 26.0679 21.5352 25.92 21.7645 25.5762L23.101 23.5723C24.2473 21.8531 26.4022 21.1136 28.3627 21.7665L34.2 23.7098C36.0727 24.3344 37.3351 26.088 37.3332 28.0622V32.7647C37.3332 33.9802 36.8503 35.146 35.9907 36.0056C35.1312 36.8651 33.9654 37.348 32.7498 37.348H29.0832C13.3898 37.348 0.666504 24.6247 0.666504 8.93132V5.24999Z" fill="black"/>
</svg>
