<svg viewBox="0 0 569 212" fill="none" xmlns="http://www.w3.org/2000/svg">
<g clip-path="url(#clip0_3_638)">
<path d="M564.843 87.3808H552.322L541.353 128.436H515.71L526.679 87.3808H514.158L518.315 71.9726H530.836L534.942 56.5645H560.586L556.479 71.9726H569L564.843 87.3808Z" fill="#111111"/>
<path d="M498.183 128.436H472.591L482.357 91.9476C482.725 90.7256 482.927 89.4596 482.958 88.1836C482.958 85.0053 481.272 83.416 477.9 83.4159C473.359 83.4159 470.32 86.2766 468.785 91.9979L459.018 128.436H433.375L452.607 56.5645H478.25L473.643 73.8799C477.649 72.2738 483.108 71.4708 490.02 71.4708C502.408 71.4708 508.601 76.2722 508.601 85.8751C508.544 88.7314 508.106 91.5673 507.299 94.3073L498.183 128.436Z" fill="#111111"/>
<path d="M428.613 123.718C423.939 141.318 410.8 150.118 389.197 150.118C367.928 150.118 357.277 144.915 357.244 134.509C357.244 133.836 357.294 133.165 357.394 132.501H387.244C387.088 133.091 387.004 133.698 386.994 134.308C387.06 136.817 388.913 138.072 392.553 138.072C396.961 138.072 399.916 135.245 401.418 129.59L402.219 126.529C398.124 128.158 393.753 128.976 389.348 128.938C371.952 128.938 363.237 123.066 363.204 111.321C363.247 108.368 363.668 105.433 364.456 102.588L365.708 97.9205C370.416 80.2874 383.404 71.4708 404.673 71.4708C408.698 71.3536 412.689 72.2328 416.293 74.0305L416.843 71.9726H442.486L428.613 123.718ZM407.077 108.41L411.435 92.0985C411.799 90.8929 412.001 89.6439 412.035 88.3847C412.035 85.1729 410.349 83.5668 406.977 83.5664C402.469 83.5664 399.448 86.4105 397.912 92.0985L393.555 108.41C393.22 109.621 393.035 110.868 393.004 112.125C393.004 115.336 394.69 116.942 398.062 116.943C402.57 116.943 405.575 114.098 407.077 108.41Z" fill="#111111"/>
<path d="M368.663 68.1582H343.02L346.126 56.5645H371.768L368.663 68.1582ZM352.536 128.436H326.894L342.019 71.9726H367.662L352.536 128.436Z" fill="#111111"/>
<path d="M328.398 103.993H284.275L283.122 108.31C282.755 109.532 282.553 110.798 282.521 112.074C282.521 115.253 284.207 116.842 287.58 116.842C292.054 116.842 294.926 114.5 296.194 109.815H326.044C319.533 122.564 305.643 128.938 284.375 128.938C263.373 128.938 252.872 122.698 252.872 110.217C252.914 107.618 253.302 105.035 254.024 102.538L255.226 97.8703C259.934 80.2707 274.758 71.4708 299.7 71.4708C320.735 71.4708 331.253 77.6607 331.253 90.0405C331.214 92.7099 330.81 95.3614 330.051 97.9205L328.398 103.993ZM300.502 94.0057L301.053 91.998C301.394 90.8058 301.579 89.5744 301.604 88.3345C301.671 85.0556 300.001 83.4161 296.595 83.4159C292.088 83.4159 289.066 86.2766 287.53 91.998L286.979 94.0057H300.502Z" fill="#111111"/>
<path d="M254.775 84.4196C250.838 83.745 246.85 83.4092 242.855 83.4159C236.01 83.4159 231.503 87.4477 229.333 95.5114L220.518 128.436H194.875L210 71.9726H235.643L235.143 73.8799C239.401 72.2765 243.915 71.4603 248.465 71.4708C253.073 71.4708 256.311 71.5377 258.181 71.6716L254.775 84.4196Z" fill="#111111"/>
<path d="M203.988 71.9727H168.63L165.174 84.821H195.524L191.417 100.179H161.066L153.504 128.436H122.853L137.978 71.9727H164.021L142.085 56.5646H208.095L203.988 71.9727Z" fill="#111111"/>
<path d="M119.848 128.435H81.6842L74.5723 113.178L57.2433 128.435L28.6456 128.385L66.1583 95.4612L55.0397 71.9722H75.7743L47.8276 56.5641H85.9416L93.1536 71.7714L110.533 56.5641L139.08 56.5139L101.567 89.5386L119.848 128.435Z" fill="#3A56EA"/>
<path d="M25.5927 128.436L0 128.386L15.0751 71.9726L44.8248 56.5645L25.5927 128.436Z" fill="#3A56EA"/>
<path fill-rule="evenodd" clip-rule="evenodd" d="M28.3508 147.611C236.163 260.22 480.359 203.916 568.522 139.099C438.377 197.576 268.928 214.066 57.617 147.296L28.3508 147.611Z" fill="#3A56EA"/>
<path fill-rule="evenodd" clip-rule="evenodd" d="M560.996 35.2125C454.22 -21.631 251.287 -1.87186 197.09 39.6692C273.127 5.4154 456.704 8.5026 536.786 41.8972L560.996 35.2125Z" fill="#3A56EA"/>
</g>
<defs>
<clipPath id="clip0_3_638">
<rect width="569" height="212" fill="white"/>
</clipPath>
</defs>
</svg>
