<svg width="214" height="129" viewBox="0 0 214 129" fill="none" xmlns="http://www.w3.org/2000/svg">
<g id="Favicon" clip-path="url(#clip0_3_653)">
<g id="&#208;&#161;&#208;&#187;&#208;&#190;&#208;&#185; 2">
<g id="Layer 1">
<path id="Vector" d="M204.321 37.8441H169.034L165.585 50.6978H195.874L191.775 66.062H161.486L153.939 94.3308H123.351L138.445 37.8441H164.435L142.544 22.4296H208.42L204.321 37.8441Z" fill="#111111"/>
<path id="Vector_2" d="M120.352 94.33H82.2662L75.1689 79.0664L57.8753 94.33L29.336 94.2797L66.772 61.3424L55.6762 37.8436H76.3685L48.4788 22.4291H86.5149L93.7122 37.6428L111.056 22.4291L139.545 22.3789L102.109 55.4174L120.352 94.33Z" fill="#3A56EA"/>
<path id="Vector_3" d="M26.2894 94.3308L0.749023 94.2806L15.7932 37.8441L45.4823 22.4296L26.2894 94.3308Z" fill="#3A56EA"/>
<path id="Vector_4" fill-rule="evenodd" clip-rule="evenodd" d="M214 6.84077C193.308 -4.20226 153.98 -0.363497 143.477 7.70658C158.213 1.05197 193.789 1.65182 209.308 8.1394L214 6.84077Z" fill="#3A56EA"/>
<path id="Vector_5" fill-rule="evenodd" clip-rule="evenodd" d="M0 103.428C82.329 148.15 179.072 125.789 214 100.048C162.44 123.271 95.3095 129.821 11.5944 103.303L0 103.428Z" fill="#3A56EA"/>
</g>
</g>
</g>
<defs>
<clipPath id="clip0_3_653">
<rect width="214" height="129" fill="white"/>
</clipPath>
</defs>
</svg>
