<svg width="40" height="40" viewBox="0 0 40 40" fill="none" xmlns="http://www.w3.org/2000/svg">
<g id="01) Icons / Line /  bell">
<path id="bell" fill-rule="evenodd" clip-rule="evenodd" d="M24.7166 31.6667C24.0109 33.6666 22.1207 35.0041 19.9999 35.0041C17.8791 35.0041 15.9889 33.6666 15.2832 31.6667H12.6316C11.2211 31.6668 9.90636 30.9535 9.13763 29.771C8.36891 28.5884 8.2506 27.0973 8.82323 25.8083L9.9999 23.1567V18.3333C9.99938 14.0945 12.6705 10.3156 16.6666 8.90167V8.33333C16.6666 6.49238 18.1589 5 19.9999 5C21.8408 5 23.3332 6.49238 23.3332 8.33333V8.90167C27.2166 10.275 29.9999 13.98 29.9999 18.3333V23.1567L31.1782 25.8067C31.7516 27.0958 31.6337 28.5875 30.8649 29.7705C30.096 30.9535 28.7808 31.6671 27.3699 31.6667H24.7166ZM22.8882 31.6667H17.1116C17.7079 32.6978 18.8088 33.3327 19.9999 33.3327C21.191 33.3327 22.2919 32.6978 22.8882 31.6667ZM21.6666 8.47167V8.33333C21.6666 7.41286 20.9204 6.66667 19.9999 6.66667C19.0794 6.66667 18.3332 7.41286 18.3332 8.33333V8.47167C19.4366 8.28643 20.5632 8.28643 21.6666 8.47167ZM19.9999 10C15.3975 10 11.6666 13.731 11.6666 18.3333V23.3333L11.5949 23.6717L10.3449 26.485C10.0014 27.2581 10.0722 28.1525 10.5331 28.8619C10.9939 29.5713 11.7823 29.9995 12.6282 30H27.3699C28.2166 30.0004 29.006 29.5721 29.4673 28.8621C29.9286 28.1521 29.9992 27.2569 29.6549 26.4833L28.4049 23.6717L28.3332 23.3333V18.3333C28.3332 13.731 24.6023 10 19.9999 10Z" fill="#545454"/>
</g>
</svg>
