<svg width="41" height="42" viewBox="0 0 41 42" fill="none" xmlns="http://www.w3.org/2000/svg">
<g id="stopwatch 1" clip-path="url(#clip0_183_8671)">
<g id="Group">
<g id="Group_2">
<path id="Vector" d="M21.4937 10.6309C20.9186 10.6309 20.4524 11.1084 20.4524 11.6976V13.7489C20.4524 14.338 20.9186 14.8156 21.4937 14.8156C22.0688 14.8156 22.535 14.338 22.535 13.7489V11.6976C22.535 11.1084 22.0688 10.6309 21.4937 10.6309Z" fill="white"/>
</g>
</g>
<g id="Group_3">
<g id="Group_4">
<path id="Vector_2" d="M21.4937 33.2324C20.9186 33.2324 20.4524 33.71 20.4524 34.2991V36.3504C20.4524 36.9396 20.9186 37.4171 21.4937 37.4171C22.0688 37.4171 22.535 36.9396 22.535 36.3504V34.2991C22.535 33.71 22.0688 33.2324 21.4937 33.2324Z" fill="white"/>
</g>
</g>
<g id="Group_5">
<g id="Group_6">
<path id="Vector_3" d="M33.5255 22.9551H31.523C30.9479 22.9551 30.4817 23.4326 30.4817 24.0218C30.4817 24.6109 30.9479 25.0885 31.523 25.0885H33.5255C34.1006 25.0885 34.5668 24.6109 34.5668 24.0218C34.5668 23.4326 34.1006 22.9551 33.5255 22.9551Z" fill="white"/>
</g>
</g>
<g id="Group_7">
<g id="Group_8">
<path id="Vector_4" d="M30.7715 32.018C30.7606 32.0063 30.7494 31.9949 30.7379 31.9836L29.3218 30.5329C28.9245 30.107 28.2653 30.0916 27.8496 30.4986C27.4338 30.9055 27.4187 31.5808 27.816 32.0067C27.8269 32.0184 27.8381 32.0298 27.8496 32.0411L29.2657 33.4918C29.663 33.9177 30.3221 33.9331 30.7379 33.5262C31.1537 33.1192 31.1688 32.444 30.7715 32.018Z" fill="white"/>
</g>
</g>
<g id="Group_9">
<g id="Group_10">
<path id="Vector_5" d="M30.148 15.0934C29.7481 14.7174 29.1334 14.7191 28.7355 15.0973L23.2087 20.759C21.4474 19.7865 19.2499 20.4608 18.3006 22.2651C18.0156 22.8066 17.8666 23.4121 17.8668 24.0272L17.8692 24.0223C17.8682 26.0729 19.49 27.7361 21.4918 27.7371C23.4936 27.7382 25.1172 26.0768 25.1182 24.0262C25.1186 23.4104 24.9693 22.8043 24.6841 22.2622L30.211 16.6006C30.5998 16.1666 30.5717 15.4918 30.148 15.0934ZM21.4937 25.6018C20.6422 25.6018 19.9518 24.8946 19.9518 24.0223C19.9527 23.1503 20.6425 22.4436 21.4937 22.4427C22.3453 22.4427 23.0356 23.15 23.0356 24.0223C23.0356 24.8946 22.3453 25.6018 21.4937 25.6018Z" fill="white"/>
</g>
</g>
<g id="Group_11">
<g id="Group_12">
<path id="Vector_6" d="M37.9461 10.95C38.3434 11.3759 39.0025 11.3914 39.4183 10.9844C39.8341 10.5774 39.8492 9.90218 39.4519 9.47624C39.441 9.46451 39.4298 9.45302 39.4183 9.44186L35.7273 5.66167C35.3115 5.25469 34.6524 5.27011 34.2551 5.69605C33.8705 6.10837 33.8705 6.75749 34.2551 7.16981L35.3693 8.31117L33.1577 10.5767C30.2182 7.88343 26.4732 6.29225 22.5357 6.06373V2.13338H26.2123C26.7874 2.13338 27.2536 1.65583 27.2536 1.06669C27.2536 0.47755 26.7874 0 26.2123 0H16.7758C16.2007 0 15.7345 0.47755 15.7345 1.06669C15.7345 1.65583 16.2007 2.13338 16.7758 2.13338H20.4524V6.06537C16.1603 6.3144 12.1095 8.17939 9.07821 11.302C8.68092 11.7279 8.69598 12.4032 9.11177 12.8101C9.51428 13.2041 10.148 13.2041 10.5504 12.8101C16.5948 6.61833 26.3947 6.61825 32.4391 12.81L32.4392 12.8101C38.4739 18.992 38.4739 29.0509 32.4392 35.2328C26.4045 41.4147 16.5851 41.4147 10.5504 35.2328C10.1346 34.8258 9.47551 34.8413 9.07821 35.2672C8.69366 35.6795 8.69366 36.3286 9.07821 36.741C15.9411 43.7606 27.0596 43.7519 33.9121 36.7217C40.4699 29.9937 40.7844 19.1998 34.63 12.0832L36.8423 9.81685L37.9461 10.95Z" fill="white"/>
</g>
</g>
<g id="Group_13">
<g id="Group_14">
<path id="Vector_7" d="M11.8505 16.1152H2.30106C1.72594 16.1152 1.25977 16.5928 1.25977 17.1819C1.25977 17.7711 1.72594 18.2486 2.30106 18.2486H11.8505C12.4256 18.2486 12.8918 17.7711 12.8918 17.1819C12.8918 16.5928 12.4256 16.1152 11.8505 16.1152Z" fill="white"/>
</g>
</g>
<g id="Group_15">
<g id="Group_16">
<path id="Vector_8" d="M14.2775 22.9551H4.72721C4.15209 22.9551 3.68591 23.4326 3.68591 24.0218C3.68591 24.6109 4.15209 25.0885 4.72721 25.0885H14.2775C14.8526 25.0885 15.3188 24.6109 15.3188 24.0218C15.3188 23.4326 14.8526 22.9551 14.2775 22.9551Z" fill="white"/>
</g>
</g>
<g id="Group_17">
<g id="Group_18">
<path id="Vector_9" d="M11.8505 29.7969H2.30106C1.72594 29.7969 1.25977 30.2744 1.25977 30.8636C1.25977 31.4527 1.72594 31.9303 2.30106 31.9303H11.8505C12.4256 31.9303 12.8918 31.4527 12.8918 30.8636C12.8918 30.2744 12.4256 29.7969 11.8505 29.7969Z" fill="white"/>
</g>
</g>
</g>
<defs>
<clipPath id="clip0_183_8671">
<rect width="41" height="42" fill="white"/>
</clipPath>
</defs>
</svg>
