<svg width="24" height="24" viewBox="0 0 24 24" fill="none" xmlns="http://www.w3.org/2000/svg">
<g id="archives 1">
<path id="Vector" d="M17.0559 0.885226L17.051 0.880387C16.9598 0.786335 16.834 0.734017 16.7031 0.735377H9.83139C8.49712 0.735982 7.41552 1.81743 7.41522 3.1517V4.16178H4.20157C2.8673 4.16208 1.7857 5.24353 1.7854 6.57795V20.8191C1.7857 22.1534 2.8673 23.2349 4.20157 23.2353H14.0356C15.3699 23.2349 16.4513 22.1534 16.4518 20.8191V19.8091H19.6654C20.9997 19.8088 22.0812 18.7272 22.0816 17.3929V6.10436C22.0807 5.97614 22.0305 5.8532 21.9414 5.76112L17.0559 0.885226ZM17.1864 2.38341L20.4386 5.63078H18.6362C17.8364 5.62851 17.1886 4.98058 17.1864 4.18098V2.38341ZM14.0356 22.2689H4.20157C3.40183 22.2665 2.75405 21.6187 2.75178 20.8191V6.57795C2.75405 5.7782 3.40183 5.13042 4.20157 5.12816H7.72928C7.83876 5.16671 7.95806 5.16671 8.06754 5.12816H10.595V7.60708C10.5953 8.9415 11.6767 10.023 13.0112 10.0234H15.4901V20.8191C15.4856 21.6198 14.8361 22.2668 14.0356 22.2689ZM14.8136 9.05687H13.0112C12.2114 9.05461 11.5636 8.40698 11.5614 7.60708V5.8095L14.8136 9.05687ZM19.6654 18.8425H16.4518V9.53046C16.4509 9.40224 16.4007 9.2796 16.3116 9.18752L11.4309 4.31148L11.426 4.30664C11.3349 4.21274 11.2091 4.16027 11.0783 4.16178H8.3816V3.1517C8.38387 2.35196 9.03165 1.70433 9.83139 1.70191H16.2248V4.18098C16.2251 5.51525 17.3066 6.5967 18.641 6.59715H21.1152V17.3929C21.113 18.1926 20.465 18.8403 19.6654 18.8425Z" fill="#3A56EA"/>
<path id="Vector_2" d="M4.71373 12.9568H9.60898C9.87602 12.9568 10.0922 12.7402 10.0922 12.4735C10.0922 12.2065 9.87602 11.9902 9.60898 11.9902H4.71373C4.447 11.9902 4.23047 12.2065 4.23047 12.4735C4.23047 12.7402 4.447 12.9568 4.71373 12.9568Z" fill="#3A56EA"/>
<path id="Vector_3" d="M13.5233 15.417H4.71373C4.447 15.417 4.23047 15.6334 4.23047 15.9003C4.23047 16.1671 4.447 16.3835 4.71373 16.3835H13.5233C13.7902 16.3835 14.0066 16.1671 14.0066 15.9003C14.0066 15.6334 13.7902 15.417 13.5233 15.417Z" fill="#3A56EA"/>
<path id="Vector_4" d="M13.5233 18.8428H4.71373C4.447 18.8428 4.23047 19.0593 4.23047 19.326C4.23047 19.5929 4.447 19.8093 4.71373 19.8093H13.5233C13.7902 19.8093 14.0066 19.5929 14.0066 19.326C14.0066 19.0593 13.7902 18.8428 13.5233 18.8428Z" fill="#3A56EA"/>
<path id="Vector_5" d="M19.1531 11.9902H17.6792C17.4123 11.9902 17.196 12.2065 17.196 12.4735C17.196 12.7402 17.4123 12.9568 17.6792 12.9568H19.1531C19.42 12.9568 19.6364 12.7402 19.6364 12.4735C19.6364 12.2065 19.42 11.9902 19.1531 11.9902Z" fill="#3A56EA"/>
<path id="Vector_6" d="M19.1531 15.417H17.6792C17.4123 15.417 17.196 15.6334 17.196 15.9003C17.196 16.1671 17.4123 16.3835 17.6792 16.3835H19.1531C19.42 16.3835 19.6364 16.1671 19.6364 15.9003C19.6364 15.6334 19.42 15.417 19.1531 15.417Z" fill="#3A56EA"/>
</g>
</svg>
