<svg width="24" height="24" viewBox="0 0 24 24" fill="none" xmlns="http://www.w3.org/2000/svg">
<path fill-rule="evenodd" clip-rule="evenodd" d="M11 7.707L7.85398 10.854C7.72751 10.9805 7.54317 11.0299 7.37041 10.9836C7.19764 10.9373 7.0627 10.8023 7.01641 10.6296C6.97011 10.4568 7.01951 10.2725 7.14598 10.146L11.146 6.146C11.2398 6.05196 11.3672 5.99911 11.5 5.99911C11.6328 5.99911 11.7602 6.05196 11.854 6.146L15.854 10.146C16.0495 10.3415 16.0495 10.6585 15.854 10.854C15.6585 11.0495 15.3415 11.0495 15.146 10.854L12 7.707V17.5C12 17.7761 11.7761 18 11.5 18C11.2238 18 11 17.7761 11 17.5V7.707Z" fill="#038700"/>
</svg>
