<svg width="24" height="24" viewBox="0 0 24 24" fill="none" xmlns="http://www.w3.org/2000/svg">
<path fill-rule="evenodd" clip-rule="evenodd" d="M13 16.293L16.146 13.146C16.2725 13.0195 16.4568 12.9701 16.6296 13.0164C16.8024 13.0627 16.9373 13.1977 16.9836 13.3704C17.0299 13.5432 16.9805 13.7275 16.854 13.854L12.854 17.854C12.7602 17.948 12.6328 18.0009 12.5 18.0009C12.3672 18.0009 12.2398 17.948 12.146 17.854L8.14602 13.854C7.95051 13.6585 7.95051 13.3415 8.14602 13.146C8.34153 12.9505 8.65851 12.9505 8.85402 13.146L12 16.293V6.5C12 6.22386 12.2239 6 12.5 6C12.7762 6 13 6.22386 13 6.5V16.293Z" fill="#ED0000"/>
</svg>
