<svg width="24" height="24" viewBox="0 0 24 24" fill="none" xmlns="http://www.w3.org/2000/svg">
<path fill-rule="evenodd" clip-rule="evenodd" d="M14 8.0005H14.5C15.3284 8.0005 16 8.67207 16 9.5005C16 9.77664 15.7762 10.0005 15.5 10.0005C15.2239 10.0005 15 9.77664 15 9.5005C15 9.22436 14.7762 9.0005 14.5 9.0005H9.50001C9.22387 9.0005 9.00001 9.22436 9.00001 9.5005V10.6335C9.00005 10.8826 9.18339 11.0936 9.43001 11.1285L14.712 11.8825C15.4511 11.988 16 12.621 16 13.3675V14.5005C16 15.3289 15.3284 16.0005 14.5 16.0005H14V16.5005C14 16.7766 13.7762 17.0005 13.5 17.0005C13.2239 17.0005 13 16.7766 13 16.5005V16.0005H11V16.5005C11 16.7766 10.7762 17.0005 10.5 17.0005C10.2239 17.0005 10 16.7766 10 16.5005V16.0005H9.50001C8.67158 16.0005 8.00001 15.3289 8.00001 14.5005C8.00001 14.2244 8.22387 14.0005 8.50001 14.0005C8.77615 14.0005 9.00001 14.2244 9.00001 14.5005C9.00001 14.7766 9.22387 15.0005 9.50001 15.0005H14.5C14.7762 15.0005 15 14.7766 15 14.5005V13.3675C15 13.1184 14.8166 12.9074 14.57 12.8725L9.28801 12.1185C8.54896 12.013 7.99998 11.38 8.00001 10.6335V9.5005C8.00001 8.67207 8.67158 8.0005 9.50001 8.0005H10V7.5005C10 7.22436 10.2239 7.0005 10.5 7.0005C10.7762 7.0005 11 7.22436 11 7.5005V8.0005H13V7.5005C13 7.22436 13.2239 7.0005 13.5 7.0005C13.7762 7.0005 14 7.22436 14 7.5005V8.0005ZM3.00001 12.0005C3.00016 7.91522 5.75186 4.34249 9.70169 3.29923C13.6515 2.25598 17.8086 4.00393 19.826 7.5563C21.8435 11.1087 21.2152 15.5743 18.2959 18.4321C15.3766 21.29 10.8987 21.8231 7.39001 19.7305L3.65801 20.9745C3.46619 21.0383 3.25483 20.9803 3.12243 20.8275C2.99003 20.6748 2.96264 20.4573 3.05301 20.2765L4.61701 17.1485C3.56183 15.6394 2.99722 13.8419 3.00001 12.0005ZM7.29401 18.7085C7.43661 18.6609 7.59305 18.68 7.72001 18.7605C11.215 20.9749 15.8218 20.159 18.3437 16.8791C20.8657 13.5991 20.4705 8.9373 17.4325 6.12858C14.3945 3.31986 9.71611 3.29101 6.6437 6.06206C3.5713 8.8331 3.11872 13.4897 5.60001 16.8005C5.71373 16.9521 5.73193 17.155 5.64701 17.3245L4.48701 19.6445L7.29401 18.7085Z" fill="#1e1e1e"/>
</svg>
