<svg width="24" height="24" viewBox="0 0 24 24" fill="none" xmlns="http://www.w3.org/2000/svg">
<path fill-rule="evenodd" clip-rule="evenodd" d="M12 22C6.477 22 2 17.523 2 12C2 6.477 6.477 2 12 2C17.523 2 22 6.477 22 12C22 17.523 17.523 22 12 22ZM12 21C15.2154 21 18.1865 19.2846 19.7942 16.5C21.4019 13.7154 21.4019 10.2846 19.7942 7.5C18.1865 4.71539 15.2154 3 12 3C7.02944 3 3 7.02944 3 12C3 16.9706 7.02944 21 12 21ZM15.79 14.093C15.9418 14.1941 16.0266 14.3698 16.0111 14.5516C15.9956 14.7334 15.8824 14.8923 15.7157 14.9662C15.5489 15.0402 15.3551 15.0175 15.21 14.907L11.71 12.407C11.6162 12.3402 11.5484 12.243 11.518 12.132L10.018 6.632C9.96426 6.45768 10.0097 6.26792 10.1366 6.13687C10.2635 6.00582 10.4517 5.95428 10.6277 6.00239C10.8036 6.0505 10.9394 6.19062 10.982 6.368L12.436 11.697L15.791 14.093H15.79Z" fill="#939393"/>
</svg>
