<svg width="24" height="24" viewBox="0 0 24 24" fill="none" xmlns="http://www.w3.org/2000/svg">
<g id="delivery-truck 1" clip-path="url(#clip0_183_9110)">
<path id="Vector" d="M20.6055 18.6432C20.1988 18.6435 19.8011 18.5232 19.4628 18.2975C19.1245 18.0717 18.8608 17.7507 18.7049 17.3751C18.5491 16.9994 18.5081 16.586 18.5873 16.1871C18.6665 15.7881 18.8622 15.4217 19.1496 15.134C19.4371 14.8463 19.8035 14.6503 20.2023 14.5709C20.6012 14.4914 21.0147 14.532 21.3904 14.6876C21.7662 14.8432 22.0874 15.1067 22.3134 15.4448C22.5394 15.783 22.66 16.1805 22.66 16.5872C22.6597 17.1322 22.4432 17.6548 22.058 18.0402C21.6728 18.4257 21.1504 18.6426 20.6055 18.6432ZM20.6055 15.2812C20.3471 15.281 20.0945 15.3573 19.8795 15.5006C19.6645 15.6439 19.4969 15.8478 19.3978 16.0864C19.2987 16.325 19.2727 16.5877 19.3229 16.8411C19.3731 17.0946 19.4974 17.3274 19.68 17.5102C19.8626 17.693 20.0953 17.8175 20.3486 17.868C20.602 17.9186 20.8647 17.8928 21.1034 17.794C21.3421 17.6952 21.5462 17.5278 21.6898 17.313C21.8333 17.0982 21.91 16.8456 21.91 16.5872C21.9098 16.2412 21.7724 15.9093 21.5278 15.6644C21.2833 15.4196 20.9515 15.2818 20.6055 15.2812Z" fill="#1e1e1e"/>
<path id="Vector_2" d="M9.77101 18.6432C9.36429 18.6436 8.96659 18.5234 8.62822 18.2977C8.28985 18.072 8.02601 17.7511 7.87009 17.3754C7.71417 16.9998 7.67317 16.5863 7.75228 16.1874C7.83138 15.7884 8.02704 15.4219 8.31449 15.1341C8.60195 14.8464 8.96829 14.6504 9.36717 14.5709C9.76605 14.4914 10.1795 14.532 10.5553 14.6876C10.9311 14.8431 11.2524 15.1066 11.4784 15.4448C11.7044 15.7829 11.825 16.1805 11.825 16.5872C11.8246 17.1321 11.6082 17.6545 11.2231 18.0399C10.838 18.4253 10.3158 18.6423 9.77101 18.6432ZM9.77101 15.2812C9.51263 15.2809 9.25993 15.3571 9.04489 15.5004C8.82986 15.6436 8.66216 15.8475 8.563 16.0861C8.46385 16.3247 8.4377 16.5873 8.48786 16.8408C8.53803 17.0943 8.66226 17.3272 8.84482 17.51C9.02739 17.6929 9.2601 17.8175 9.51349 17.868C9.76688 17.9186 10.0296 17.8928 10.2683 17.794C10.5071 17.6952 10.7112 17.5278 10.8548 17.313C10.9984 17.0982 11.075 16.8456 11.075 16.5872C11.0747 16.2413 10.9373 15.9096 10.6929 15.6648C10.4485 15.42 10.117 15.282 9.77101 15.2812Z" fill="#1e1e1e"/>
<path id="Vector_3" d="M23.3104 16.9633H22.2849C22.1855 16.9633 22.0901 16.9238 22.0198 16.8535C21.9495 16.7832 21.9099 16.6878 21.9099 16.5883C21.9099 16.4889 21.9495 16.3935 22.0198 16.3232C22.0901 16.2529 22.1855 16.2133 22.2849 16.2133H23.2044V14.2248C23.2042 13.956 23.1354 13.6917 23.0044 13.4568L20.9744 9.81734C20.9571 9.78628 20.9318 9.76041 20.9011 9.74239C20.8704 9.72438 20.8355 9.71487 20.7999 9.71484H18.0334V16.2148H18.9264C19.0259 16.2148 19.1213 16.2544 19.1916 16.3247C19.2619 16.395 19.3014 16.4904 19.3014 16.5898C19.3014 16.6893 19.2619 16.7847 19.1916 16.855C19.1213 16.9253 19.0259 16.9648 18.9264 16.9648H17.6584C17.559 16.9648 17.4636 16.9253 17.3933 16.855C17.323 16.7847 17.2834 16.6893 17.2834 16.5898V9.33984C17.2834 9.24039 17.323 9.145 17.3933 9.07468C17.4636 9.00435 17.559 8.96484 17.6584 8.96484H20.7999C20.9691 8.96476 21.1353 9.00986 21.2812 9.09547C21.4271 9.18109 21.5475 9.30412 21.6299 9.45184L23.6594 13.0918C23.8524 13.4383 23.9538 13.8283 23.9539 14.2248V16.3198C23.9537 16.4904 23.8858 16.654 23.7652 16.7746C23.6446 16.8952 23.481 16.9631 23.3104 16.9633Z" fill="#1e1e1e"/>
<path id="Vector_4" d="M8.09147 16.9621H4.49597C4.39652 16.9621 4.30113 16.9226 4.23081 16.8523C4.16048 16.782 4.12097 16.6866 4.12097 16.5871V13.7031C4.12097 13.6037 4.16048 13.5083 4.23081 13.438C4.30113 13.3676 4.39652 13.3281 4.49597 13.3281C4.59543 13.3281 4.69081 13.3676 4.76114 13.438C4.83146 13.5083 4.87097 13.6037 4.87097 13.7031V16.2121H8.09147C8.19093 16.2121 8.28631 16.2516 8.35664 16.322C8.42696 16.3923 8.46647 16.4877 8.46647 16.5871C8.46647 16.6866 8.42696 16.782 8.35664 16.8523C8.28631 16.9226 8.19093 16.9621 8.09147 16.9621Z" fill="#1e1e1e"/>
<path id="Vector_5" d="M4.49597 12.3735C4.39652 12.3735 4.30113 12.334 4.23081 12.2636C4.16048 12.1933 4.12097 12.0979 4.12097 11.9985V9.48047C4.12097 9.38101 4.16048 9.28563 4.23081 9.2153C4.30113 9.14498 4.39652 9.10547 4.49597 9.10547C4.59543 9.10547 4.69081 9.14498 4.76114 9.2153C4.83146 9.28563 4.87097 9.38101 4.87097 9.48047V12C4.87057 12.0992 4.83089 12.1942 4.76061 12.2642C4.69033 12.3342 4.59517 12.3735 4.49597 12.3735Z" fill="#1e1e1e"/>
<path id="Vector_6" d="M17.6585 16.9628H11.45C11.3505 16.9628 11.2551 16.9233 11.1848 16.853C11.1145 16.7827 11.075 16.6873 11.075 16.5878C11.075 16.4884 11.1145 16.393 11.1848 16.3227C11.2551 16.2524 11.3505 16.2128 11.45 16.2128H17.2835V6.40234H4.87097V7.94684C4.87097 8.0463 4.83146 8.14168 4.76114 8.21201C4.69081 8.28233 4.59543 8.32184 4.49597 8.32184C4.39652 8.32184 4.30113 8.28233 4.23081 8.21201C4.16048 8.14168 4.12097 8.0463 4.12097 7.94684V6.33334C4.12124 6.15273 4.19314 5.97959 4.3209 5.85192C4.44866 5.72425 4.62185 5.65248 4.80247 5.65234H17.3525C17.533 5.65261 17.7061 5.72444 17.8337 5.8521C17.9614 5.97975 18.0332 6.15281 18.0335 6.33334V16.5878C18.0335 16.6873 17.994 16.7827 17.9236 16.853C17.8533 16.9233 17.7579 16.9628 17.6585 16.9628Z" fill="#1e1e1e"/>
<path id="Vector_7" d="M5.97849 14.0781H1.21899C1.11954 14.0781 1.02416 14.0386 0.953829 13.9683C0.883503 13.898 0.843994 13.8026 0.843994 13.7031C0.843994 13.6037 0.883503 13.5083 0.953829 13.438C1.02416 13.3676 1.11954 13.3281 1.21899 13.3281H5.97849C6.07795 13.3281 6.17333 13.3676 6.24366 13.438C6.31399 13.5083 6.35349 13.6037 6.35349 13.7031C6.35349 13.8026 6.31399 13.898 6.24366 13.9683C6.17333 14.0386 6.07795 14.0781 5.97849 14.0781Z" fill="#1e1e1e"/>
<path id="Vector_8" d="M9.77102 12.373H3.12952C3.03006 12.373 2.93468 12.3335 2.86435 12.2632C2.79403 12.1929 2.75452 12.0975 2.75452 11.998C2.75452 11.8986 2.79403 11.8032 2.86435 11.7329C2.93468 11.6626 3.03006 11.623 3.12952 11.623H9.77102C9.87047 11.623 9.96586 11.6626 10.0362 11.7329C10.1065 11.8032 10.146 11.8986 10.146 11.998C10.146 12.0975 10.1065 12.1929 10.0362 12.2632C9.96586 12.3335 9.87047 12.373 9.77102 12.373Z" fill="#1e1e1e"/>
<path id="Vector_9" d="M2.92297 10.3926H0.329468C0.230012 10.3926 0.134629 10.3531 0.0643027 10.2827C-0.00602341 10.2124 -0.0455322 10.117 -0.0455322 10.0176C-0.0455322 9.91812 -0.00602341 9.82274 0.0643027 9.75241C0.134629 9.68209 0.230012 9.64258 0.329468 9.64258H2.92297C3.02242 9.64258 3.11781 9.68209 3.18813 9.75241C3.25846 9.82274 3.29797 9.91812 3.29797 10.0176C3.29797 10.117 3.25846 10.2124 3.18813 10.2827C3.11781 10.3531 3.02242 10.3926 2.92297 10.3926Z" fill="#1e1e1e"/>
<path id="Vector_10" d="M7.08154 8.32227H2.50354C2.40408 8.32227 2.3087 8.28276 2.23837 8.21243C2.16805 8.1421 2.12854 8.04672 2.12854 7.94727C2.12854 7.84781 2.16805 7.75243 2.23837 7.6821C2.3087 7.61177 2.40408 7.57227 2.50354 7.57227H7.08154C7.181 7.57227 7.27638 7.61177 7.3467 7.6821C7.41703 7.75243 7.45654 7.84781 7.45654 7.94727C7.45654 8.04672 7.41703 8.1421 7.3467 8.21243C7.27638 8.28276 7.181 8.32227 7.08154 8.32227Z" fill="#1e1e1e"/>
</g>
<defs>
<clipPath id="clip0_183_9110">
<rect width="24" height="24" fill="white"/>
</clipPath>
</defs>
</svg>
