<svg width="24" height="24" viewBox="0 0 24 24" fill="none" xmlns="http://www.w3.org/2000/svg">
<g id="01) Icons / Line /  document">
<path id="document" fill-rule="evenodd" clip-rule="evenodd" d="M20 6.52905V19.501C20 20.8818 18.8807 22.001 17.5 22.001H6.5C5.11929 22.001 4 20.8818 4 19.501V4.50105C4 3.12034 5.11929 2.00105 6.5 2.00105H15.472C15.6145 1.99171 15.754 2.04503 15.854 2.14705L19.854 6.14705C19.9563 6.24725 20.0096 6.38718 20 6.53005V6.52905ZM15 3.00105H6.5C5.67157 3.00105 5 3.67262 5 4.50105V19.501C5 20.3295 5.67157 21.001 6.5 21.001H17.5C18.3284 21.001 19 20.3295 19 19.501V7.00105H15.5C15.2239 7.00105 15 6.77719 15 6.50105V3.00105ZM16 3.70805V6.00105H18.293L16 3.70805ZM8.5 10C8.22386 10 8 9.77619 8 9.50005C8 9.22391 8.22386 9.00005 8.5 9.00005H15.5C15.7761 9.00005 16 9.22391 16 9.50005C16 9.77619 15.7761 10 15.5 10H8.5ZM8.5 13C8.22386 13 8 12.7762 8 12.5C8 12.2239 8.22386 12 8.5 12H15.5C15.7761 12 16 12.2239 16 12.5C16 12.7762 15.7761 13 15.5 13H8.5ZM8.5 16C8.22386 16 8 15.7762 8 15.5C8 15.2239 8.22386 15 8.5 15H13.5C13.7761 15 14 15.2239 14 15.5C14 15.7762 13.7761 16 13.5 16H8.5Z" fill="#545454"/>
</g>
</svg>
