<svg width="24" height="24" viewBox="0 0 24 24" fill="none" xmlns="http://www.w3.org/2000/svg">
<g id="01) Icons / Line /  edit-circle">
<path id="edit-circle" fill-rule="evenodd" clip-rule="evenodd" d="M12.5 10.207L8 14.707V16H9.293L13.793 11.5L12.5 10.207ZM13.207 9.5L14.5 10.793L15.793 9.5L14.5 8.207L13.207 9.5ZM12 22C6.477 22 2 17.523 2 12C2 6.477 6.477 2 12 2C17.523 2 22 6.477 22 12C22 17.523 17.523 22 12 22ZM12 21C15.2154 21 18.1865 19.2846 19.7942 16.5C21.4019 13.7154 21.4019 10.2846 19.7942 7.5C18.1865 4.71539 15.2154 3 12 3C7.02944 3 3 7.02944 3 12C3 16.9706 7.02944 21 12 21ZM14.854 7.146L16.854 9.146C16.948 9.2398 17.0009 9.36717 17.0009 9.5C17.0009 9.63283 16.948 9.7602 16.854 9.854L9.854 16.854C9.76005 16.9477 9.6327 17.0002 9.5 17H7.5C7.22386 17 7 16.7761 7 16.5V14.5C6.99976 14.3673 7.05229 14.24 7.146 14.146L14.146 7.146C14.2398 7.05196 14.3672 6.99911 14.5 6.99911C14.6328 6.99911 14.7602 7.05196 14.854 7.146Z" fill="#1e1e1e"/>
</g>
</svg>
