<svg width="24" height="24" viewBox="0 0 24 24" fill="none" xmlns="http://www.w3.org/2000/svg">
<g id="01) Icons / Line /  eye">
<path id="eye" fill-rule="evenodd" clip-rule="evenodd" d="M2.03391 11.8199C4.16791 6.31491 10.3599 3.58291 15.8639 5.71691C18.665 6.80309 20.8797 9.01783 21.9659 11.8189C22.0111 11.9353 22.0111 12.0645 21.9659 12.1809C19.8319 17.6849 13.6399 20.4169 8.13591 18.2829C5.33483 17.1967 3.12009 14.982 2.03391 12.1809C1.9887 12.0645 1.9887 11.9353 2.03391 11.8189V11.8199ZM8.49691 17.3499C13.4259 19.2609 18.9629 16.8679 20.9619 11.9999C19.9519 9.54372 17.9781 7.60968 15.5019 6.64991C10.5749 4.73891 5.03791 7.13191 3.03891 11.9999C4.04888 14.4561 6.02267 16.3901 8.49891 17.3499H8.49691ZM11.9999 15.9999C9.79077 15.9999 7.99991 14.209 7.99991 11.9999C7.99991 9.79077 9.79077 7.99991 11.9999 7.99991C14.2091 7.99991 15.9999 9.79077 15.9999 11.9999C15.9999 14.209 14.2091 15.9999 11.9999 15.9999ZM11.9999 14.9999C13.6568 14.9999 14.9999 13.6568 14.9999 11.9999C14.9999 10.3431 13.6568 8.99991 11.9999 8.99991C10.3431 8.99991 8.99991 10.3431 8.99991 11.9999C8.99991 13.6568 10.3431 14.9999 11.9999 14.9999Z" fill="#545454"/>
</g>
</svg>
