<svg width="24" height="24" viewBox="0 0 24 24" fill="none" xmlns="http://www.w3.org/2000/svg">
<g id="01) Icons / Line /  flag">
<path id="flag" fill-rule="evenodd" clip-rule="evenodd" d="M14 5.00016H19.5C19.6894 5.00016 19.8625 5.10717 19.9472 5.27656C20.0319 5.44595 20.0136 5.64866 19.9 5.80016L17.125 9.50016L19.9 13.2002C20.0136 13.3517 20.0319 13.5544 19.9472 13.7238C19.8625 13.8932 19.6894 14.0002 19.5 14.0002H14.5C13.6716 14.0002 13 13.3286 13 12.5002C13 12.224 12.7761 12.0002 12.5 12.0002H7V20.5002C7 20.7763 6.77614 21.0002 6.5 21.0002C6.22386 21.0002 6 20.7763 6 20.5002V4.49316C6 3.66474 6.67157 2.99316 7.5 2.99316H12.5C13.3284 2.99316 14 3.66474 14 4.49316V5.00016ZM14 6.00016V7.50016C14 7.77631 13.7761 8.00016 13.5 8.00016C13.2239 8.00016 13 7.77631 13 7.50016V5.50216C13 5.50083 13 5.4995 13 5.49816V4.49316C13 4.21702 12.7761 3.99316 12.5 3.99316H7.5C7.22386 3.99316 7 4.21702 7 4.49316V11.0002H12.5C13.3284 11.0002 14 11.6717 14 12.5002C14 12.7763 14.2239 13.0002 14.5 13.0002H18.5L16.1 9.80016C15.9667 9.62239 15.9667 9.37794 16.1 9.20016L18.5 6.00016H14Z" fill="#545454"/>
</g>
</svg>
