<svg width="24" height="24" viewBox="0 0 24 24" fill="none" xmlns="http://www.w3.org/2000/svg">
<g id="history 1">
<g id="Order_history">
<path id="Vector" d="M11.7764 21H3.3175C4.30161 19.7508 4.8346 18.2056 4.82995 16.6154V3H17.8797V10.1799C17.8797 10.2794 17.9192 10.3748 17.9895 10.4451C18.0598 10.5154 18.1552 10.5549 18.2547 10.5549C18.3541 10.5549 18.4495 10.5154 18.5199 10.4451C18.5902 10.3748 18.6297 10.2794 18.6297 10.1799V2.625C18.6297 2.57575 18.62 2.52698 18.6012 2.48148C18.5823 2.43598 18.5547 2.39463 18.5199 2.35981C18.4851 2.32498 18.4437 2.29736 18.3982 2.27852C18.3527 2.25968 18.3039 2.24999 18.2547 2.25H4.45495C4.4057 2.24999 4.35693 2.25968 4.31142 2.27852C4.26592 2.29736 4.22458 2.32498 4.18975 2.35981C4.15493 2.39463 4.12731 2.43598 4.10847 2.48148C4.08962 2.52698 4.07993 2.57575 4.07995 2.625V16.6154C4.08225 17.4504 3.91892 18.2776 3.5994 19.0491C3.27989 19.8205 2.81053 20.521 2.21849 21.1099C2.16604 21.1623 2.13033 21.2291 2.11585 21.3019C2.10138 21.3746 2.1088 21.45 2.13718 21.5185C2.16556 21.587 2.21363 21.6456 2.2753 21.6868C2.33696 21.728 2.40947 21.75 2.48363 21.75H11.7764C11.8759 21.75 11.9713 21.7105 12.0416 21.6402C12.1119 21.5698 12.1514 21.4745 12.1514 21.375C12.1514 21.2755 12.1119 21.1802 12.0416 21.1098C11.9713 21.0395 11.8759 21 11.7764 21Z" fill="#1e1e1e"/>
<path id="Vector_2" d="M15.6561 6.97266H7.05359C6.95413 6.97266 6.85875 7.01217 6.78842 7.08249C6.7181 7.15282 6.67859 7.2482 6.67859 7.34766C6.67859 7.44711 6.7181 7.5425 6.78842 7.61282C6.85875 7.68315 6.95413 7.72266 7.05359 7.72266H15.6561C15.7555 7.72266 15.8509 7.68315 15.9213 7.61282C15.9916 7.5425 16.0311 7.44711 16.0311 7.34766C16.0311 7.2482 15.9916 7.15282 15.9213 7.08249C15.8509 7.01217 15.7555 6.97266 15.6561 6.97266Z" fill="#1e1e1e"/>
<path id="Vector_3" d="M16.0311 9.88867C16.0311 9.83942 16.0214 9.79065 16.0026 9.74515C15.9837 9.69965 15.9561 9.6583 15.9213 9.62348C15.8865 9.58865 15.8451 9.56103 15.7996 9.54219C15.7541 9.52335 15.7053 9.51366 15.6561 9.51367H7.05359C6.95413 9.51367 6.85875 9.55318 6.78842 9.62351C6.7181 9.69383 6.67859 9.78922 6.67859 9.88867C6.67859 9.98813 6.7181 10.0835 6.78842 10.1538C6.85875 10.2242 6.95413 10.2637 7.05359 10.2637H15.6561C15.7053 10.2637 15.7541 10.254 15.7996 10.2352C15.8451 10.2163 15.8865 10.1887 15.9213 10.1539C15.9561 10.119 15.9837 10.0777 16.0026 10.0322C16.0214 9.98669 16.0311 9.93792 16.0311 9.88867Z" fill="#1e1e1e"/>
<path id="Vector_4" d="M12.2921 12.4297C12.2921 12.3804 12.2824 12.3317 12.2635 12.2862C12.2447 12.2407 12.2171 12.1993 12.1822 12.1645C12.1474 12.1297 12.1061 12.102 12.0606 12.0832C12.0151 12.0644 11.9663 12.0547 11.9171 12.0547H7.05359C6.95413 12.0547 6.85875 12.0942 6.78842 12.1645C6.7181 12.2348 6.67859 12.3302 6.67859 12.4297C6.67859 12.5291 6.7181 12.6245 6.78842 12.6949C6.85875 12.7652 6.95413 12.8047 7.05359 12.8047H11.9171C11.9663 12.8047 12.0151 12.795 12.0606 12.7762C12.1061 12.7573 12.1474 12.7297 12.1822 12.6949C12.2171 12.6601 12.2447 12.6187 12.2635 12.5732C12.2824 12.5277 12.2921 12.4789 12.2921 12.4297Z" fill="#1e1e1e"/>
<path id="Vector_5" d="M7.05359 14.5957C6.95413 14.5957 6.85875 14.6352 6.78842 14.7055C6.7181 14.7759 6.67859 14.8712 6.67859 14.9707C6.67859 15.0702 6.7181 15.1655 6.78842 15.2359C6.85875 15.3062 6.95413 15.3457 7.05359 15.3457H10.1124C10.2118 15.3457 10.3072 15.3062 10.3775 15.2359C10.4479 15.1655 10.4874 15.0702 10.4874 14.9707C10.4874 14.8712 10.4479 14.7759 10.3775 14.7055C10.3072 14.6352 10.2118 14.5957 10.1124 14.5957H7.05359Z" fill="#1e1e1e"/>
<path id="Vector_6" d="M20.4716 13.4743C19.8444 12.8459 19.0565 12.4021 18.1941 12.1913C17.3316 11.9804 16.4278 12.0107 15.5815 12.2788C14.7351 12.5469 13.9787 13.0425 13.3949 13.7114C12.8112 14.3803 12.4225 15.1969 12.2715 16.0717L11.9735 15.7737C11.9032 15.7034 11.8078 15.6639 11.7083 15.6639C11.6089 15.6639 11.5135 15.7034 11.4432 15.7737C11.3729 15.844 11.3334 15.9394 11.3334 16.0389C11.3334 16.1383 11.3729 16.2337 11.4432 16.304L12.3061 17.1669C12.3766 17.237 12.472 17.2764 12.5715 17.2764C12.671 17.2764 12.7664 17.237 12.8369 17.1669L13.7 16.304C13.7703 16.2337 13.8098 16.1383 13.8098 16.0389C13.8098 15.9394 13.7703 15.844 13.7 15.7737C13.6297 15.7034 13.5343 15.6639 13.4348 15.6639C13.3354 15.6639 13.24 15.7034 13.1697 15.7737L13.0845 15.8589C13.3151 14.987 13.8271 14.2157 14.5411 13.6646C15.255 13.1136 16.1309 12.8138 17.0328 12.8117C17.9346 12.8095 18.8119 13.1053 19.5285 13.6529C20.245 14.2005 20.7607 14.9695 20.9953 15.8402C21.23 16.711 21.1706 17.6349 20.8263 18.4685C20.482 19.302 19.8722 19.9986 19.0914 20.4499C18.3106 20.9013 17.4026 21.0822 16.5085 20.9646C15.6144 20.847 14.7841 20.4374 14.1466 19.7995C14.0763 19.7292 13.9809 19.6897 13.8814 19.6897C13.782 19.6897 13.6866 19.7292 13.6163 19.7995C13.546 19.8698 13.5065 19.9652 13.5065 20.0646C13.5065 20.1641 13.546 20.2594 13.6163 20.3298C14.5255 21.2381 15.7583 21.7482 17.0435 21.7478C18.3288 21.7475 19.5612 21.2368 20.47 20.328C21.3788 19.4192 21.8895 18.1867 21.8898 16.9015C21.8901 15.6162 21.3799 14.3835 20.4716 13.4743Z" fill="#1e1e1e"/>
<path id="Vector_7" d="M17.0439 13.6563C16.9947 13.6562 16.9459 13.6659 16.9004 13.6848C16.8549 13.7036 16.8136 13.7312 16.7788 13.7661C16.7439 13.8009 16.7163 13.8422 16.6975 13.8877C16.6786 13.9332 16.6689 13.982 16.6689 14.0312V16.9031C16.6695 17.0026 16.7091 17.0979 16.7791 17.1686L18.1382 18.5276C18.2087 18.5972 18.3038 18.636 18.4028 18.6357C18.5018 18.6354 18.5967 18.5959 18.6667 18.5259C18.7368 18.4559 18.7762 18.361 18.7766 18.262C18.7769 18.1629 18.738 18.0678 18.6685 17.9973L17.4189 16.7478V14.0312C17.419 13.982 17.4093 13.9332 17.3904 13.8877C17.3716 13.8422 17.344 13.8009 17.3091 13.7661C17.2743 13.7312 17.233 13.7036 17.1875 13.6848C17.142 13.6659 17.0932 13.6562 17.0439 13.6563Z" fill="#1e1e1e"/>
</g>
</g>
</svg>
