<svg width="24" height="24" viewBox="0 0 24 24" fill="none" xmlns="http://www.w3.org/2000/svg">
<g id="01) Icons / Line /  import">
<path id="import" fill-rule="evenodd" clip-rule="evenodd" d="M13 14.293L15.146 12.146C15.3415 11.9505 15.6585 11.9505 15.854 12.146C16.0495 12.3415 16.0495 12.6585 15.854 12.854L12.854 15.854C12.7602 15.948 12.6328 16.0009 12.5 16.0009C12.3672 16.0009 12.2398 15.948 12.146 15.854L9.146 12.854C8.95049 12.6585 8.95049 12.3415 9.146 12.146C9.34151 11.9505 9.65849 11.9505 9.854 12.146L12 14.293V3.5C12 3.22386 12.2239 3 12.5 3C12.7761 3 13 3.22386 13 3.5V14.293ZM18.5 6C18.2239 6 18 5.77614 18 5.5C18 5.22386 18.2239 5 18.5 5H19.5C20.8807 5 22 6.11929 22 7.5V17.5C22 18.8807 20.8807 20 19.5 20H5.5C4.11929 20 3 18.8807 3 17.5V7.5C3 6.11929 4.11929 5 5.5 5H6.5C6.77614 5 7 5.22386 7 5.5C7 5.77614 6.77614 6 6.5 6H5.5C4.67157 6 4 6.67157 4 7.5V17.5C4 18.3284 4.67157 19 5.5 19H19.5C20.3284 19 21 18.3284 21 17.5V7.5C21 6.67157 20.3284 6 19.5 6H18.5Z" fill="#0020DD"/>
</g>
</svg>
