<svg width="24" height="24" viewBox="0 0 24 24" fill="none" xmlns="http://www.w3.org/2000/svg">
    <g id="01) Icons / Line / line-chart">
        <!-- Rewritten First path (for the line, now from left to right) -->
        <path id="line-chart-part-1" fill-rule="evenodd" clip-rule="evenodd" d="M7.146 14.854L11.5 10.5L14.146 13.146C14.3415 13.3415 14.6585 13.3415 14.854 13.146L20 8.707V11.5C20 11.7761 20.2239 12 20.5 12C20.7761 12 21 11.7761 21 11.5V7.5C21 7.22386 20.7761 7 20.5 7H16.5C16.2239 7 16 7.22386 16 7.5C16 7.77614 16.2239 8 16.5 8H19.293L14.5 12.793L11.854 10.146C11.6585 9.95049 11.3415 9.95049 11.146 10.146L7.146 14.146C6.95049 14.3415 6.95049 14.6585 7.146 14.854Z" fill="#545454"/>

        <!-- Second path (for the bottom border, unchanged) -->
        <path id="line-chart-part-2" fill-rule="evenodd" clip-rule="evenodd" d="M20.5 18C20.7761 18 21 18.2239 21 18.5C21 18.7761 20.7761 19 20.5 19H5.5C4.11929 19 3 17.8807 3 16.5V7.5C3 7.22386 3.22386 7 3.5 7C3.77614 7 4 7.22386 4 7.5V16.5C4 17.3284 4.67157 18 5.5 18H20.5Z" fill="#545454"/>
    </g>
</svg>
