<svg width="24" height="24" viewBox="0 0 24 24" fill="none" xmlns="http://www.w3.org/2000/svg">
<g id="01) Icons / Line /  line-chart">
<path id="line-chart" fill-rule="evenodd" clip-rule="evenodd" d="M19.293 8H16.5C16.2239 8 16 7.77614 16 7.5C16 7.22386 16.2239 7 16.5 7H20.5C20.7761 7 21 7.22386 21 7.5V11.5C21 11.7761 20.7761 12 20.5 12C20.2239 12 20 11.7761 20 11.5V8.707L14.854 13.854C14.7602 13.948 14.6328 14.0009 14.5 14.0009C14.3672 14.0009 14.2398 13.948 14.146 13.854L11.5 11.207L7.854 14.854C7.65849 15.0495 7.34151 15.0495 7.146 14.854C6.95049 14.6585 6.95049 14.3415 7.146 14.146L11.146 10.146C11.2398 10.052 11.3672 9.99911 11.5 9.99911C11.6328 9.99911 11.7602 10.052 11.854 10.146L14.5 12.793L19.293 8ZM20.5 18C20.7761 18 21 18.2239 21 18.5C21 18.7761 20.7761 19 20.5 19H5.5C4.11929 19 3 17.8807 3 16.5V7.5C3 7.22386 3.22386 7 3.5 7C3.77614 7 4 7.22386 4 7.5V16.5C4 17.3284 4.67157 18 5.5 18H20.5Z" fill="#545454"/>
</g>
</svg>
