<svg width="24" height="24" viewBox="0 0 24 24" fill="none" xmlns="http://www.w3.org/2000/svg">
<g id="01) Icons / Line /  marker">
<path id="marker" fill-rule="evenodd" clip-rule="evenodd" d="M7.779 18.4859L5.514 16.2209C4.61201 17.2782 4.08313 18.6031 4.009 19.9909C5.39682 19.9168 6.72166 19.3879 7.779 18.4859ZM6.207 15.4999L8.5 17.7929L19.798 6.49488C19.9293 6.36361 20.0031 6.18555 20.0031 5.99988C20.0031 5.81422 19.9293 5.63616 19.798 5.50488L18.495 4.20188C18.3637 4.07059 18.1857 3.99683 18 3.99683C17.8143 3.99683 17.6363 4.07059 17.505 4.20188L6.207 15.4999ZM14.792 5.49988C14.0428 4.80504 12.8783 4.82713 12.156 5.54988L8.854 8.85488C8.72753 8.98136 8.54319 9.03075 8.37043 8.98446C8.19766 8.93817 8.06272 8.80322 8.01643 8.63046C7.97014 8.45769 8.01953 8.27336 8.146 8.14688L11.449 4.84488C12.5618 3.73207 14.3591 3.70988 15.499 4.79488L16.798 3.49588C17.4619 2.8321 18.5381 2.8321 19.202 3.49588L20.505 4.79888C21.1688 5.46276 21.1688 6.53901 20.505 7.20288L8.854 18.8539C7.4796 20.2281 5.61557 21.0001 3.672 20.9999H3.5C3.22386 20.9999 3 20.776 3 20.4999V20.3279C3 18.3849 3.772 16.5209 5.146 15.1459L14.792 5.50088V5.49988Z" fill="#121924"/>
</g>
</svg>
