<svg width="24" height="24" viewBox="0 0 24 24" fill="none" xmlns="http://www.w3.org/2000/svg">
<g id="01) Icons / Line /  printer">
<path id="printer" fill-rule="evenodd" clip-rule="evenodd" d="M19 18.0163V20.5253C19 20.8014 18.7761 21.0253 18.5 21.0253H5.5C5.22386 21.0253 5 20.8014 5 20.5253V18.0003H3.5C2.67157 18.0003 2 17.3287 2 16.5003V11.5003C2 10.1196 3.11929 9.00028 4.5 9.00028H5V3.50028C5 3.22414 5.22386 3.00028 5.5 3.00028L18.5 2.98828C18.7761 2.98828 19 3.21214 19 3.48828V9.00028H19.5C20.8807 9.00028 22 10.1196 22 11.5003V16.5163C22 17.3447 21.3284 18.0163 20.5 18.0163H19ZM19 17.016H20.5C20.7761 17.016 21 16.7921 21 16.516V11.5C21 10.6716 20.3284 10 19.5 10H19V13.512C19 13.7881 18.7761 14.012 18.5 14.012H5.5C5.22386 14.012 5 13.7881 5 13.512V10H4.5C3.67157 10 3 10.6716 3 11.5V16.5C3 16.7761 3.22386 17 3.5 17H5V15.5C5 15.2239 5.22386 15 5.5 15H18.5C18.7761 15 19 15.2239 19 15.5V17.016ZM18 9.49828V3.98828L6 4.00028V13.0123H18V9.49828ZM8.5 7C8.22386 7 8 6.77614 8 6.5C8 6.22386 8.22386 6 8.5 6H15.5C15.7761 6 16 6.22386 16 6.5C16 6.77614 15.7761 7 15.5 7H8.5ZM8.5 9C8.22386 9 8 8.77614 8 8.5C8 8.22386 8.22386 8 8.5 8H15.5C15.7761 8 16 8.22386 16 8.5C16 8.77614 15.7761 9 15.5 9H8.5ZM8.5 11C8.22386 11 8 10.7761 8 10.5C8 10.2239 8.22386 10 8.5 10H13.5C13.7761 10 14 10.2239 14 10.5C14 10.7761 13.7761 11 13.5 11H8.5ZM6 16V20.025H18V16H6Z" fill="#3A56EA"/>
</g>
</svg>
