<svg width="24" height="24" viewBox="0 0 24 24" fill="none" xmlns="http://www.w3.org/2000/svg">
<g id="01) Icons / Line /  refresh-double">
<path id="refresh-double" fill-rule="evenodd" clip-rule="evenodd" d="M17 18.2456C19.5812 16.1793 20.6252 12.7379 19.6273 9.58572C18.6294 6.43353 15.7951 4.22002 12.495 4.01559C12.2189 3.99875 12.0087 3.76124 12.0255 3.48509C12.0424 3.20895 12.2799 2.99875 12.556 3.01559C17.29 3.30659 21 7.23659 21 11.9996C21.0023 14.7184 19.7736 17.292 17.658 18.9996H20.5C20.7761 18.9996 21 19.2235 21 19.4996C21 19.7757 20.7761 19.9996 20.5 19.9996H16.5C16.2239 19.9996 16 19.7757 16 19.4996V15.4996C16 15.2235 16.2239 14.9996 16.5 14.9996C16.7761 14.9996 17 15.2235 17 15.4996V18.2456ZM7 5.754C4.41313 7.82418 3.37004 11.2747 4.37691 14.4313C5.38377 17.5878 8.23221 19.7971 11.54 19.987C11.8095 20.0101 12.0117 20.2432 11.9966 20.5132C11.9814 20.7832 11.7543 20.9922 11.484 20.985C6.734 20.717 3 16.778 3 12C2.9977 9.28124 4.22642 6.70762 6.342 5H3.5C3.22386 5 3 4.77614 3 4.5C3 4.22386 3.22386 4 3.5 4H7.5C7.77615 4 8 4.22386 8 4.5V8.5C8 8.77614 7.77615 9 7.5 9C7.22386 9 7 8.77614 7 8.5V5.754Z" fill="#3A56EA"/>
</g>
</svg>
