<svg width="24" height="24" viewBox="0 0 24 24" fill="none" xmlns="http://www.w3.org/2000/svg">
<g id="01) Icons / Line /  refresh-right">
<path id="refresh-right" fill-rule="evenodd" clip-rule="evenodd" d="M19 6.34201V3.50001C19 3.22387 19.2238 3.00001 19.5 3.00001C19.7761 3.00001 20 3.22387 20 3.50001V7.50001C20 7.77616 19.7761 8.00001 19.5 8.00001H15.5C15.2238 8.00001 15 7.77616 15 7.50001C15 7.22387 15.2238 7.00001 15.5 7.00001H18.246C15.8376 3.99212 11.6272 3.12843 8.22911 4.94524C4.83103 6.76205 3.2109 10.7431 4.3747 14.4164C5.5385 18.0897 9.15551 20.4115 12.9798 19.9401C16.8042 19.4687 19.7491 16.338 19.986 12.492C20.0149 12.2267 20.2472 12.0309 20.5135 12.0472C20.7799 12.0635 20.9865 12.2862 20.983 12.553C20.696 17.287 16.765 21 12 21C7.80854 20.9996 4.17229 18.1058 3.23085 14.0215C2.28941 9.9372 4.29205 5.74368 8.06036 3.90852C11.8287 2.07337 16.365 3.08246 19 6.34201Z" fill="#3A56EA"/>
</g>
</svg>
