<svg width="24" height="24" viewBox="0 0 40 40" fill="none" xmlns="http://www.w3.org/2000/svg">
<g id="01) Icons / Line /  search">
<path id="search" fill-rule="evenodd" clip-rule="evenodd" d="M28.3334 27.1534L34.7567 33.5767C35.0825 33.9025 35.0825 34.4308 34.7567 34.7567C34.4308 35.0825 33.9025 35.0825 33.5767 34.7567L27.1534 28.3317C21.7528 33.0958 13.5452 32.7106 8.61464 27.4616C3.68408 22.2127 3.81252 13.997 8.90476 8.90476C13.997 3.81252 22.2127 3.68408 27.4616 8.61464C32.7106 13.5452 33.0958 21.7528 28.3317 27.1534H28.3334ZM18.3334 30C22.5015 30 26.3529 27.7764 28.437 24.1667C30.521 20.557 30.521 16.1097 28.437 12.5C26.3529 8.89034 22.5015 6.66668 18.3334 6.66668C11.89 6.66668 6.66668 11.89 6.66668 18.3334C6.66668 24.7767 11.89 30 18.3334 30Z" fill="#A7A7A7"/>
</g>
</svg>
