<svg width="24" height="24" viewBox="0 0 24 24" fill="none" xmlns="http://www.w3.org/2000/svg">
<g id="01) Icons / Line /  cog">
<path id="cog" fill-rule="evenodd" clip-rule="evenodd" d="M17.1869 5.91L18.6709 5.606C19.3037 5.47653 19.9482 5.76658 20.2709 6.326L21.0499 7.675C21.3726 8.23415 21.3013 8.93702 20.8729 9.42L19.8689 10.552C20.0442 11.5094 20.0442 12.4906 19.8689 13.448L20.8729 14.58C21.3013 15.063 21.3726 15.7658 21.0499 16.325L20.2699 17.675C19.9472 18.2344 19.3027 18.5245 18.6699 18.395L17.1869 18.091C16.4465 18.7226 15.5969 19.2137 14.6799 19.54L14.2019 20.974C13.998 21.5863 13.4253 21.9995 12.7799 22H11.2219C10.5762 21.9999 10.003 21.5866 9.79895 20.974L9.31995 19.54C8.40295 19.2134 7.55334 18.722 6.81295 18.09L5.32895 18.394C4.69623 18.5235 4.05167 18.2334 3.72895 17.674L2.94995 16.325C2.6273 15.7658 2.69859 15.063 3.12695 14.58L4.13095 13.448C3.95573 12.4906 3.95573 11.5094 4.13095 10.552L3.12695 9.42C2.69859 8.93702 2.6273 8.23415 2.94995 7.675L3.72995 6.325C4.05267 5.76558 4.69723 5.47553 5.32995 5.605L6.81295 5.909C7.55342 5.27738 8.40302 4.78632 9.31995 4.46L9.79795 3.026C10.0019 2.41371 10.5746 2.00049 11.2199 2H12.7779C13.4237 2.00006 13.9969 2.41336 14.2009 3.026L14.6789 4.46C15.5959 4.78662 16.4456 5.27802 17.1859 5.91H17.1869ZM14.1329 5.33C13.9807 5.28169 13.8606 5.16352 13.8099 5.012L13.2539 3.342C13.1859 3.13755 12.9944 2.99973 12.7789 3H11.2209C11.0055 2.99973 10.814 3.13755 10.7459 3.342L10.1899 5.012C10.1395 5.1639 10.0195 5.28249 9.86695 5.331C8.9122 5.63673 8.03435 6.14421 7.29295 6.819C7.17481 6.92651 7.01242 6.9711 6.85595 6.939L5.12995 6.585C4.91882 6.54153 4.70361 6.63826 4.59595 6.825L3.81695 8.175C3.70951 8.36167 3.73368 8.59617 3.87695 8.757L5.04495 10.075C5.15032 10.1942 5.19265 10.3565 5.15895 10.512C4.94654 11.4926 4.94654 12.5074 5.15895 13.488C5.19265 13.6435 5.15032 13.8058 5.04495 13.925L3.87595 15.243C3.73301 15.4041 3.70924 15.6385 3.81695 15.825L4.59695 17.175C4.70448 17.3613 4.91915 17.458 5.12995 17.415L6.85695 17.061C7.01342 17.0289 7.17581 17.0735 7.29395 17.181C8.03535 17.8558 8.9132 18.3633 9.86795 18.669C10.0205 18.7175 10.1405 18.8361 10.1909 18.988L10.7469 20.658C10.815 20.8624 11.0065 21.0003 11.2219 21H12.7799C12.9954 21.0003 13.1869 20.8624 13.2549 20.658L13.8109 18.988C13.8614 18.8361 13.9814 18.7175 14.1339 18.669C15.0887 18.3633 15.9665 17.8558 16.7079 17.181C16.8261 17.0735 16.9885 17.0289 17.1449 17.061L18.8719 17.415C19.0831 17.4585 19.2983 17.3617 19.4059 17.175L20.1849 15.825C20.2924 15.6383 20.2682 15.4038 20.1249 15.243L18.9569 13.925C18.8516 13.8058 18.8092 13.6435 18.8429 13.488C19.0554 12.5074 19.0554 11.4926 18.8429 10.512C18.8092 10.3565 18.8516 10.1942 18.9569 10.075L20.1259 8.757C20.2689 8.59595 20.2927 8.36146 20.1849 8.175L19.4049 6.825C19.2974 6.63866 19.0827 6.542 18.8719 6.585L17.1449 6.939C16.9885 6.9711 16.8261 6.92651 16.7079 6.819C15.9665 6.14421 15.0887 5.63673 14.1339 5.331L14.1329 5.33ZM11.9999 16C9.79081 16 7.99995 14.2091 7.99995 12C7.99995 9.79086 9.79081 8 11.9999 8C14.2091 8 15.9999 9.79086 15.9999 12C15.9999 14.2091 14.2091 16 11.9999 16ZM11.9999 15C13.6568 15 14.9999 13.6569 14.9999 12C14.9999 10.3431 13.6568 9 11.9999 9C10.3431 9 8.99995 10.3431 8.99995 12C8.99995 13.6569 10.3431 15 11.9999 15Z" fill="#545454"/>
</g>
</svg>
