<svg width="14" height="14" viewBox="0 0 14 14" fill="none" xmlns="http://www.w3.org/2000/svg">
<path id="checkmark-circle" fill-rule="evenodd" clip-rule="evenodd" d="M6.66667 13.3333C2.98467 13.3333 0 10.3487 0 6.66667C0 2.98467 2.98467 0 6.66667 0C10.3487 0 13.3333 2.98467 13.3333 6.66667C13.3333 10.3487 10.3487 13.3333 6.66667 13.3333ZM6.66667 12.6667C8.81026 12.6667 10.791 11.5231 11.8628 9.66667C12.9346 7.81026 12.9346 5.52307 11.8628 3.66667C10.791 1.81026 8.81026 0.666667 6.66667 0.666667C3.35296 0.666667 0.666667 3.35296 0.666667 6.66667C0.666667 9.98038 3.35296 12.6667 6.66667 12.6667ZM8.764 4.764C8.89434 4.63366 9.10566 4.63366 9.236 4.764C9.36634 4.89434 9.36634 5.10566 9.236 5.236L5.90267 8.56933C5.84013 8.63203 5.75522 8.66726 5.66667 8.66726C5.57811 8.66726 5.4932 8.63203 5.43067 8.56933L4.09733 7.236C3.96699 7.10566 3.96699 6.89434 4.09733 6.764C4.22767 6.63366 4.43899 6.63366 4.56933 6.764L5.66667 7.862L8.764 4.764Z" fill="#82C181"/>
</svg>
