<svg width="14" height="14" viewBox="0 0 14 14" fill="none" xmlns="http://www.w3.org/2000/svg">
<g id="01) Icons / Line /  info-circle">
<path id="info-circle" fill-rule="evenodd" clip-rule="evenodd" d="M7.58329 9.33329H8.45829C8.61938 9.33329 8.74996 9.46388 8.74996 9.62496C8.74996 9.78604 8.61938 9.91663 8.45829 9.91663H6.12496C5.96388 9.91663 5.83329 9.78604 5.83329 9.62496C5.83329 9.46388 5.96388 9.33329 6.12496 9.33329H6.99996V6.41663H6.12496C5.96388 6.41663 5.83329 6.28604 5.83329 6.12496C5.83329 5.96388 5.96388 5.83329 6.12496 5.83329H7.29163C7.45271 5.83329 7.58329 5.96388 7.58329 6.12496V9.33329ZM6.99996 12.8333C3.77821 12.8333 1.16663 10.2217 1.16663 6.99996C1.16663 3.77821 3.77821 1.16663 6.99996 1.16663C10.2217 1.16663 12.8333 3.77821 12.8333 6.99996C12.8333 10.2217 10.2217 12.8333 6.99996 12.8333ZM6.99996 12.25C8.8756 12.25 10.6088 11.2493 11.5466 9.62496C12.4844 8.0006 12.4844 5.99931 11.5466 4.37496C10.6088 2.7506 8.8756 1.74996 6.99996 1.74996C4.10046 1.74996 1.74996 4.10046 1.74996 6.99996C1.74996 9.89945 4.10046 12.25 6.99996 12.25ZM6.70829 4.08329H7.29163C7.45271 4.08329 7.58329 4.21388 7.58329 4.37496V4.95829C7.58329 5.11938 7.45271 5.24996 7.29163 5.24996H6.70829C6.54721 5.24996 6.41663 5.11938 6.41663 4.95829V4.37496C6.41663 4.21388 6.54721 4.08329 6.70829 4.08329Z" fill="#1e1e1e"/>
</g>
</svg>
